<svg width="20" height="20" viewBox="0 0 20 20" fill="none" xmlns="http://www.w3.org/2000/svg">
<path d="M10.2 11L9.3 11.9C9.11667 12.0833 9.025 12.3167 9.025 12.6C9.025 12.8833 9.11667 13.1167 9.3 13.3C9.48333 13.4833 9.71667 13.575 10 13.575C10.2833 13.575 10.5167 13.4833 10.7 13.3L13.3 10.7C13.5 10.5 13.6 10.2667 13.6 10C13.6 9.73333 13.5 9.5 13.3 9.3L10.7 6.7C10.5167 6.51667 10.2833 6.425 10 6.425C9.71667 6.425 9.48333 6.51667 9.3 6.7C9.11667 6.88333 9.025 7.11667 9.025 7.4C9.025 7.68333 9.11667 7.91667 9.3 8.1L10.2 9H7C6.71667 9 6.47933 9.096 6.288 9.288C6.09667 9.48 6.00067 9.71733 6 10C5.99933 10.2827 6.09534 10.5203 6.288 10.713C6.48067 10.9057 6.718 11.0013 7 11H10.2ZM10 20C8.61667 20 7.31667 19.7373 6.1 19.212C4.88334 18.6867 3.825 17.9743 2.925 17.075C2.025 16.1757 1.31267 15.1173 0.788001 13.9C0.263335 12.6827 0.000667933 11.3827 1.26582e-06 10C-0.000665401 8.61733 0.262001 7.31733 0.788001 6.1C1.314 4.88267 2.02633 3.82433 2.925 2.925C3.82367 2.02567 4.882 1.31333 6.1 0.788C7.318 0.262667 8.618 0 10 0C11.382 0 12.682 0.262667 13.9 0.788C15.118 1.31333 16.1763 2.02567 17.075 2.925C17.9737 3.82433 18.6863 4.88267 19.213 6.1C19.7397 7.31733 20.002 8.61733 20 10C19.998 11.3827 19.7353 12.6827 19.212 13.9C18.6887 15.1173 17.9763 16.1757 17.075 17.075C16.1737 17.9743 15.1153 18.687 13.9 19.213C12.6847 19.739 11.3847 20.0013 10 20ZM10 18C12.2333 18 14.125 17.225 15.675 15.675C17.225 14.125 18 12.2333 18 10C18 7.76667 17.225 5.875 15.675 4.325C14.125 2.775 12.2333 2 10 2C7.76667 2 5.875 2.775 4.325 4.325C2.775 5.875 2 7.76667 2 10C2 12.2333 2.775 14.125 4.325 15.675C5.875 17.225 7.76667 18 10 18Z" fill="white"/>
</svg>
