<svg width="20" height="20" viewBox="0 0 20 20" fill="none" xmlns="http://www.w3.org/2000/svg">
<path d="M13.5564 0V2.1162H16.3882L13.4842 5.02068C10.2047 2.47836 5.45376 2.7121 2.44641 5.72143C-0.815791 8.9847 -0.815791 14.2935 2.44834 17.5548C4.01864 19.1207 6.14559 20 8.36301 20C10.5804 20 12.7074 19.1207 14.2777 17.5548C17.2865 14.545 17.5202 9.79511 14.9783 6.515L17.8842 3.61245V6.44478H20V0H13.5564ZM12.7831 16.06C11.61 17.2309 10.0203 17.8885 8.36301 17.8885C6.70566 17.8885 5.11601 17.2309 3.94287 16.06C1.50536 13.6225 1.50536 9.65563 3.94287 7.21816C6.38039 4.78068 10.3461 4.7802 12.7831 7.21816C15.2202 9.65612 15.2207 13.6225 12.7831 16.06Z" fill="#005871"/>
</svg>
