<svg width="14" height="20" viewBox="0 0 14 20" fill="none" xmlns="http://www.w3.org/2000/svg">
<path d="M14 7.25C14 3.2525 10.8597 0 7 0C3.14034 0 0 3.2525 0 7.25C0 10.9371 2.67126 13.9904 6.11494 14.4421V15.75H4.66667C4.43193 15.75 4.20682 15.8466 4.04084 16.0185C3.87486 16.1904 3.78161 16.4236 3.78161 16.6667C3.78161 16.9098 3.87486 17.1429 4.04084 17.3148C4.20682 17.4868 4.43193 17.5833 4.66667 17.5833H6.11494V19.0833C6.11494 19.3264 6.20819 19.5596 6.37417 19.7315C6.54015 19.9034 6.76527 20 7 20C7.23473 20 7.45985 19.9034 7.62583 19.7315C7.79181 19.5596 7.88506 19.3264 7.88506 19.0833V17.5833H9.33333C9.56807 17.5833 9.79318 17.4868 9.95916 17.3148C10.1251 17.1429 10.2184 16.9098 10.2184 16.6667C10.2184 16.4236 10.1251 16.1904 9.95916 16.0185C9.79318 15.8466 9.56807 15.75 9.33333 15.75H7.88506V14.4421C11.3287 13.9904 14 10.9371 14 7.25ZM1.77012 7.25C1.77012 4.26333 4.11632 1.83333 7 1.83333C9.88368 1.83333 12.2299 4.26333 12.2299 7.25C12.2299 10.2367 9.88368 12.6667 7 12.6667C4.11632 12.6667 1.77012 10.2367 1.77012 7.25Z" fill="#005871"/>
</svg>
