<svg width="16" height="18" viewBox="0 0 16 18" fill="none" xmlns="http://www.w3.org/2000/svg">
<path d="M5.0249 1.06603C5.50841 0.895021 6.07724 1.06603 6.3901 1.46506C6.90205 2.03509 7.0727 2.83314 7.24335 3.54568C7.30023 4.25823 7.38555 5.08478 6.93049 5.68331C6.61763 6.16784 5.99191 6.39586 5.45152 6.22485C4.76892 6.02534 4.3423 5.3983 4.05788 4.77126C3.71658 4.11572 3.74503 3.37467 3.77347 2.66213C3.83035 1.94959 4.31386 1.20854 5.05334 1.06603H5.0249Z" fill="#4A4A4A"/>
<path d="M10.0875 1.06627C10.4573 0.952259 10.8555 1.06627 11.1968 1.18027C11.794 1.46529 12.1069 2.12083 12.1353 2.74787C12.1353 3.37491 12.1638 4.03045 11.9078 4.62898C11.6518 5.17052 11.339 5.74055 10.827 6.05407C10.4857 6.25358 10.0591 6.36759 9.66091 6.22508C9.12052 6.05407 8.77922 5.54104 8.63701 5.02801C8.43792 4.03045 8.63701 3.00438 9.06364 2.09233C9.26273 1.6363 9.60403 1.20877 10.0875 1.03776V1.06627Z" fill="#4A4A4A"/>
<path d="M0.957773 4.68574C1.35596 4.54323 1.83946 4.57173 2.18076 4.79975C2.77804 5.19877 3.09089 5.82581 3.43219 6.42435C3.71661 7.07989 3.97259 7.87793 3.63129 8.56198C3.46064 8.961 3.06245 9.30302 2.60739 9.30302C1.75414 9.38853 1.07154 8.70448 0.588032 8.07745C0.189849 7.3649 -0.123009 6.50985 0.0476407 5.6548C0.132966 5.19877 0.502707 4.82825 0.929331 4.65724L0.957773 4.68574Z" fill="#4A4A4A"/>
<path d="M13.9841 4.65714C14.8373 4.34362 15.8043 5.05616 15.8328 5.96822C15.8897 7.05128 15.4061 8.21986 14.5245 8.8754C14.1832 9.13191 13.785 9.38843 13.3583 9.33142C12.8464 9.35993 12.3629 8.9894 12.1922 8.50487C11.9078 7.84933 12.1354 7.13679 12.3913 6.50975C12.7611 5.79721 13.1877 4.99916 13.9556 4.65714H13.9841Z" fill="#4A4A4A"/>
<path d="M7.01583 7.42175C7.9544 7.13673 8.94986 7.39325 9.83155 7.70677C10.7417 8.07729 11.5665 8.70433 12.05 9.58788C12.761 10.8705 13.3583 12.2955 13.1308 13.7776C13.017 14.3477 12.5619 14.7752 12.1922 15.2027C11.4527 15.9438 10.4288 16.3998 9.37648 16.5138C8.38102 16.6848 7.38557 16.6848 6.39011 16.5138C5.224 16.3428 4.0579 15.7443 3.34686 14.7752C2.49361 13.9486 2.66426 12.6376 2.97711 11.583C3.43218 10.3289 3.94413 8.98935 5.11024 8.1913C5.67907 7.79227 6.36167 7.53576 7.04427 7.36475L7.01583 7.42175Z" fill="#4A4A4A"/>
</svg>
