<svg width="14" height="14" viewBox="0 0 14 14" fill="none" xmlns="http://www.w3.org/2000/svg">
<g clip-path="url(#clip0_273_1410)">
<path d="M9.1875 5.6875V3.08984C9.1875 2.50968 8.95703 1.95328 8.5468 1.54305C8.13656 1.13281 7.58016 0.902344 7 0.902344C6.41984 0.902344 5.86344 1.13281 5.4532 1.54305C5.04297 1.95328 4.8125 2.50968 4.8125 3.08984V5.6875" stroke="#8E8E8E" stroke-width="1.5" stroke-linecap="round" stroke-linejoin="round"/>
<path d="M10.0625 5.6875H3.9375C3.21263 5.6875 2.625 6.27513 2.625 7V11.8125C2.625 12.5374 3.21263 13.125 3.9375 13.125H10.0625C10.7874 13.125 11.375 12.5374 11.375 11.8125V7C11.375 6.27513 10.7874 5.6875 10.0625 5.6875Z" stroke="#8E8E8E" stroke-width="2" stroke-linecap="round" stroke-linejoin="round"/>
</g>
<defs>
<clipPath id="clip0_273_1410">
<rect width="14" height="14" fill="white"/>
</clipPath>
</defs>
</svg>
