<svg width="12" height="14" viewBox="0 0 12 14" fill="none" xmlns="http://www.w3.org/2000/svg">
<path d="M3.7687 1.39901C4.13134 1.26601 4.55796 1.39901 4.7926 1.70937C5.17656 2.15273 5.30455 2.77343 5.43254 3.32763C5.4752 3.88183 5.5392 4.5247 5.1979 4.99023C4.96325 5.36709 4.49397 5.54443 4.08867 5.41142C3.57672 5.25625 3.25676 4.76855 3.04344 4.28086C2.78747 3.77099 2.8088 3.19462 2.83013 2.64042C2.87279 2.08622 3.23542 1.50985 3.79004 1.39901H3.7687Z" fill="#8E4895"/>
<path d="M7.56565 1.39903C7.84296 1.31036 8.1416 1.39903 8.39757 1.48771C8.84553 1.70939 9.08017 2.21925 9.1015 2.70695C9.1015 3.19464 9.12283 3.70451 8.93085 4.17004C8.73887 4.59123 8.50423 5.03459 8.12027 5.27844C7.86429 5.43361 7.54432 5.52228 7.24568 5.41144C6.84039 5.27844 6.58442 4.87941 6.47776 4.48039C6.32844 3.70451 6.47776 2.90646 6.79773 2.19708C6.94705 1.84239 7.20302 1.50987 7.56565 1.37687V1.39903Z" fill="#8E4895"/>
<path d="M0.71833 4.21423C1.01697 4.10339 1.3796 4.12556 1.63557 4.30291C2.08353 4.61326 2.31817 5.10095 2.57415 5.56648C2.78746 6.07635 2.97944 6.69705 2.72347 7.22908C2.59548 7.53944 2.29684 7.80545 1.95554 7.80545C1.3156 7.87196 0.803655 7.33992 0.441024 6.85223C0.142387 6.29803 -0.0922568 5.63299 0.0357305 4.96795C0.0997242 4.61326 0.37703 4.32507 0.696999 4.19207L0.71833 4.21423Z" fill="#8E4895"/>
<path d="M10.488 4.19221C11.128 3.94836 11.8532 4.50256 11.8745 5.21193C11.9172 6.05432 11.5546 6.96321 10.8933 7.47307C10.6373 7.67258 10.3387 7.8721 10.0187 7.82776C9.63477 7.84993 9.27214 7.56174 9.14415 7.18489C8.93084 6.67502 9.10149 6.12082 9.29347 5.63313C9.57078 5.07893 9.89074 4.45822 10.4667 4.19221H10.488Z" fill="#8E4895"/>
<path d="M5.26187 6.34257C5.9658 6.12089 6.71239 6.3204 7.37366 6.56425C8.05626 6.85243 8.67486 7.34013 9.0375 8.02734C9.57078 9.0249 10.0187 10.1333 9.84808 11.286C9.76276 11.7294 9.42146 12.0619 9.14415 12.3944C8.58954 12.9708 7.82162 13.3255 7.03236 13.4142C6.28577 13.5472 5.53918 13.5472 4.79258 13.4142C3.918 13.2812 3.04342 12.8156 2.51014 12.0619C1.8702 11.419 1.99819 10.3993 2.23284 9.5791C2.57413 8.6037 2.9581 7.56181 3.83268 6.9411C4.2593 6.63075 4.77125 6.43124 5.2832 6.29823L5.26187 6.34257Z" fill="#8E4895"/>
</svg>
