<svg width="277" height="62" viewBox="0 0 277 62" fill="none" xmlns="http://www.w3.org/2000/svg">
<path d="M18.2366 3.84005C19.8727 7.22496 18.457 11.2957 15.077 12.9318C11.697 14.5679 7.63117 13.1522 5.99505 9.77221C4.35892 6.3873 5.77461 2.31659 9.15462 0.680472C12.5346 -0.95565 16.6004 0.460034 18.2366 3.84005Z" fill="white"/>
<path d="M41.7889 25.4868C41.3431 24.3847 40.77 23.3364 40.1136 22.342C39.2857 20.6617 38.4481 20.0494 36.714 18.8346C36.2976 18.5407 35.8714 18.2663 35.4501 17.9822C35.3228 17.8941 35.1513 17.992 35.166 18.1488L35.3424 20.4462C34.7251 20.6813 33.9904 20.9606 33.5201 21.4357C32.9715 21.9941 32.9323 22.8563 32.1534 23.2776C31.9819 23.3707 31.7909 23.4294 31.6048 23.4882C31.3745 23.5617 31.2325 23.787 31.257 24.0271L31.3011 24.4581C31.5509 25.2125 32.0603 25.7709 32.7755 26.0992C33.5642 26.4567 34.1226 26.3686 34.7202 27.1327C34.7202 27.1327 36.9638 31.5268 35.068 35.2497C34.6762 35.9061 34.2206 36.5233 33.6964 37.0817C31.2521 39.8102 27.2744 41.1769 23.7915 40.3148C20.8181 39.6437 18.2219 37.3708 17.4087 34.412C16.9336 32.7416 17.1981 31.0614 18.0161 29.6702C19.2408 27.5785 19.035 24.9529 17.4136 23.1502L17.3499 23.0816C17.3499 23.0816 15.2288 20.7303 11.2561 16.3265C8.9048 13.7205 4.66264 14.1956 2.99223 17.2817C2.31622 18.5309 1.74309 19.8388 1.29242 21.1859C-2.22965 31.4337 1.61573 43.156 10.7712 48.9069C16.2233 52.4045 23.2282 53.3303 29.3563 51.2435C39.996 47.7165 46.0212 35.9698 41.784 25.4868" fill="white"/>
<g opacity="0.76">
<mask id="mask0_754_875" style="mask-type:luminance" maskUnits="userSpaceOnUse" x="9" y="13" width="35" height="39">
<path d="M43.1703 13.4902H9.04688V51.0819H43.1703V13.4902Z" fill="white"/>
</mask>
<g mask="url(#mask0_754_875)">
<path d="M30.7622 34.8823C30.7035 37.3561 28.3717 40.2756 26.1723 41.3827C23.6103 42.7396 20.2352 42.4408 17.7859 40.7851C14.9546 38.9579 13.2841 35.377 13.5438 31.9382C13.583 31.321 13.6809 30.7087 13.8279 30.1062C14.0189 29.3322 13.6809 28.5239 12.9755 28.1468L12.9168 28.1125C12.0595 27.6569 11.0014 27.9998 10.5703 28.8668C9.87964 30.2482 9.40938 31.7423 9.19384 33.2804C7.91531 42.3183 14.9252 50.3373 23.9385 51.0231C29.1457 51.4639 34.4509 49.3723 38.0366 45.571C44.0863 39.2812 44.8162 29.3518 40.0597 22.0138C39.5307 21.1859 38.9379 20.3972 38.2864 19.6526C38.3844 18.4427 38.4775 17.2278 38.4334 16.013C38.4138 15.4497 38.3697 13.7891 37.8015 13.5245C37.3361 13.3041 36.4005 14.2103 36.0968 14.5189C35.1024 15.5182 34.2745 16.7331 33.4466 17.8696L33.4613 16.498C33.383 14.6757 32.4326 14.2201 31.546 16.0718C31.1786 16.836 30.9876 17.7912 30.7965 18.6141L28.5334 18.7121L27.6712 20.118L22.0624 19.9074C21.5725 19.8878 21.1806 20.3091 21.2247 20.7989C21.3717 22.4399 21.8566 24.2426 22.9686 25.4036C23.7671 26.2363 25.7902 25.8493 26.863 26.251C26.863 26.251 31.1443 30.2923 30.7475 34.897" fill="#FAB500"/>
</g>
</g>
<path d="M81.3553 36.7927C81.3553 45.2917 75.3937 52.2036 66.2628 52.2036C57.1318 52.2036 51.1703 45.2868 51.1703 36.7927C51.1703 28.2986 57.0731 21.4357 66.2628 21.4357C75.4525 21.4357 81.3553 28.3476 81.3553 36.7927ZM74.3797 36.7927C74.3797 31.9186 71.4308 28.0683 66.2677 28.0683C61.1046 28.0683 58.1556 31.9235 58.1556 36.7927C58.1556 41.6619 61.1095 45.5758 66.2677 45.5758C71.4259 45.5758 74.3797 41.7206 74.3797 36.7927Z" fill="white"/>
<path d="M107.754 40.8438V42.4898C107.754 49.0146 102.762 52.1938 97.7067 52.1938C92.6514 52.1938 87.5471 48.9608 87.5471 42.4898V16.4392C87.5471 14.1123 89.0215 12.922 90.9516 12.922C92.8816 12.922 94.2973 14.1123 94.2973 16.4392V21.4308C94.2973 21.7149 94.5226 21.9403 94.8067 21.9403H101.616C105.931 21.9403 105.873 28.3525 101.616 28.3525H94.8067C94.5226 28.3525 94.2973 28.5778 94.2973 28.8619V42.2007C94.2973 44.699 96.002 45.9481 97.6479 45.9481C99.2938 45.9481 100.994 44.699 100.994 42.2007V40.8389C100.994 38.5121 102.414 37.3218 104.339 37.3218C106.264 37.3218 107.744 38.5121 107.744 40.8389" fill="white"/>
<path d="M133.971 40.8438V42.4898C133.971 49.0146 128.979 52.1938 123.924 52.1938C118.869 52.1938 113.764 48.9608 113.764 42.4898V16.4392C113.764 14.1123 115.239 12.922 117.169 12.922C119.099 12.922 120.519 14.1123 120.519 16.4392V21.4308C120.519 21.7149 120.745 21.9403 121.029 21.9403H127.838C132.149 21.9403 132.095 28.3525 127.838 28.3525H121.029C120.745 28.3525 120.519 28.5778 120.519 28.8619V42.2007C120.519 44.699 122.224 45.9481 123.865 45.9481C125.506 45.9481 127.211 44.699 127.211 42.2007V40.8389C127.211 38.5121 128.631 37.3218 130.561 37.3218C132.491 37.3218 133.966 38.5121 133.966 40.8389" fill="white"/>
<path d="M155.294 21.4798C154.868 21.4455 154.437 21.4308 154.001 21.4308C144.806 21.4308 138.909 28.3574 138.909 36.8123C138.909 45.2672 144.811 52.2477 154.001 52.2477C154.486 52.2477 154.966 52.2281 155.431 52.1889H155.451C163.764 51.4982 169.089 44.8704 169.089 36.8123C169.089 28.7541 163.69 22.097 155.289 21.4798H155.294ZM155.294 45.5219C154.878 45.5807 154.447 45.6101 154.001 45.6101C148.833 45.6101 145.884 41.75 145.884 36.8123C145.884 31.8745 148.833 28.0733 154.001 28.0733C154.447 28.0733 154.878 28.1026 155.294 28.1614C159.654 28.7492 162.113 32.3546 162.113 36.8123C162.113 41.27 159.654 44.9341 155.294 45.5219Z" fill="white"/>
<path d="M250.822 22.2488V40.9124C250.822 48.6325 244.787 52.5171 238.752 52.5171C232.717 52.5171 226.638 48.6325 226.638 40.9124V22.2488C226.638 20.3286 227.994 19.3489 229.538 19.3489C231.081 19.3489 232.437 20.3286 232.437 22.2488V40.2119C232.437 44.6108 235.573 46.8103 238.752 46.8103C241.931 46.8103 245.022 44.6108 245.022 40.2119V22.2488C245.022 20.3286 246.33 19.3489 247.922 19.3489C249.514 19.3489 250.822 20.3286 250.822 22.2488Z" fill="#FAB500"/>
<path d="M190.236 42.5045C188.316 42.5045 186.166 41.8971 186.166 39.3253C186.166 37.7823 187.101 36.4744 188.83 36.4744C189.394 36.4744 189.624 36.7095 190.28 36.7095C195.845 36.7095 195.845 25.1097 188.83 25.1097C185.137 25.1097 182.889 27.5443 182.889 31.566V49.6221C182.889 51.5375 181.581 52.5221 179.989 52.5221C178.397 52.5221 177.089 51.5375 177.089 49.6221V30.6304C177.089 23.4736 182.423 19.3588 188.83 19.3588C203.987 19.3588 203.987 42.5143 190.231 42.5143" fill="#FAB500"/>
<path d="M225.232 49.382C225.232 50.832 224.296 52.0958 222.425 52.0958H209.14C206.24 52.0958 203.898 49.7543 203.898 46.8543V22.2488C203.898 20.3335 205.255 19.3489 206.798 19.3489C208.341 19.3489 209.698 20.3335 209.698 22.2488V43.8172C209.698 45.3603 210.962 46.6241 212.554 46.6241H222.425C224.296 46.6241 225.232 47.932 225.232 49.382Z" fill="#FAB500"/>
<path d="M276.51 43.0629C276.51 48.8187 272.111 52.5122 265.846 52.5122C260.746 52.5122 257.097 50.5479 254.897 46.7564C253.683 44.65 255.084 42.2204 257.469 42.2204C261.07 42.2204 261.54 46.8495 267.105 46.8495C269.441 46.8495 270.568 45.5857 270.568 44.0916C270.568 36.9348 255.363 38.664 255.363 28.186C255.363 22.0089 260.134 19.251 265.233 19.251C269.255 19.251 273.468 20.9851 275.667 24.0712C277.21 26.1775 275.854 28.5632 273.796 28.5632C273.047 28.5632 272.16 28.235 271.317 27.4414C269.681 25.8493 267.389 25.0558 265.376 25.0558C263.176 25.0558 261.163 26.0845 261.163 27.9116C261.163 33.8536 276.505 32.3106 276.505 43.0678" fill="#FAB500"/>
<path d="M245.546 33.545H241.299V37.7921C241.299 39.4723 240.114 40.3099 238.879 40.3099C237.645 40.3099 236.459 39.4723 236.459 37.7921V33.545H232.212C228.852 33.545 228.852 28.7052 232.212 28.7052H236.459V24.4582C236.459 22.778 237.694 21.9403 238.879 21.9403C240.065 21.9403 241.299 22.778 241.299 24.4582V28.7052H245.546C248.907 28.7052 248.907 33.545 245.546 33.545Z" stroke="#005871" stroke-width="0.84" stroke-miterlimit="10"/>
<path d="M245.546 33.545H241.299V37.7921C241.299 39.4723 240.114 40.3099 238.879 40.3099C237.645 40.3099 236.459 39.4723 236.459 37.7921V33.545H232.212C228.852 33.545 228.852 28.7052 232.212 28.7052H236.459V24.4582C236.459 22.778 237.694 21.9403 238.879 21.9403C240.065 21.9403 241.299 22.778 241.299 24.4582V28.7052H245.546C248.907 28.7052 248.907 33.545 245.546 33.545Z" fill="white"/>
<path d="M182.634 60H270.97" stroke="white" stroke-width="3" stroke-miterlimit="10" stroke-linecap="round"/>
</svg>
