<svg width="277" height="62" viewBox="0 0 277 62" fill="none" xmlns="http://www.w3.org/2000/svg">
<path d="M18.2483 3.84005C19.8844 7.22496 18.4688 11.2957 15.0887 12.9318C11.7038 14.5679 7.63312 13.1522 5.997 9.77221C4.36088 6.3873 5.77656 2.31659 9.15658 0.680471C12.5415 -0.955651 16.6122 0.460036 18.2483 3.84005Z" fill="#005871"/>
<path d="M41.8202 25.4868C41.3744 24.3847 40.8013 23.3364 40.1449 22.342C39.317 20.6617 38.4794 20.0494 36.7453 18.8346C36.3289 18.5407 35.8978 18.2663 35.4765 17.9822C35.3492 17.8941 35.1777 17.992 35.1924 18.1488L35.3688 20.4462C34.7516 20.6813 34.0168 20.9606 33.5465 21.4357C32.993 21.9942 32.9587 22.8563 32.1798 23.2776C32.0084 23.3706 31.8173 23.4294 31.6312 23.4882C31.4009 23.5617 31.254 23.787 31.2834 24.0271L31.3275 24.4581C31.5773 25.2125 32.0867 25.7709 32.8019 26.0992C33.5955 26.4567 34.1539 26.3686 34.7516 27.1327C34.7516 27.1327 37 31.5268 35.0994 35.2497C34.7075 35.9061 34.2519 36.5233 33.7278 37.0817C31.2785 39.8102 27.3008 41.1769 23.8131 40.3148C20.8347 39.6437 18.2385 37.3708 17.4253 34.412C16.9502 32.7416 17.2147 31.0614 18.0327 29.6702C19.2574 27.5785 19.0516 24.9529 17.4302 23.1502L17.3665 23.0816C17.3665 23.0816 15.2406 20.7303 11.2678 16.3265C8.91161 13.7205 4.66945 14.1956 2.99414 17.2817C2.31813 18.5309 1.745 19.8388 1.29433 21.1859C-2.23263 31.4337 1.61764 43.156 10.7829 48.9069C16.2399 52.4045 23.2546 53.3303 29.3876 51.2435C40.0371 47.7165 46.0672 35.9698 41.83 25.4868" fill="#005871"/>
<g opacity="0.76">
<mask id="mask0_754_554" style="mask-type:luminance" maskUnits="userSpaceOnUse" x="9" y="13" width="35" height="39">
<path d="M43.2065 13.4902H9.04883V51.0818H43.2065V13.4902Z" fill="white"/>
</mask>
<g mask="url(#mask0_754_554)">
<path d="M30.7886 34.8823C30.7299 37.3561 28.3932 40.2756 26.1938 41.3827C23.6318 42.7396 20.2518 42.4408 17.8025 40.7851C14.9663 38.9579 13.2958 35.377 13.5604 31.9382C13.5996 31.321 13.6975 30.7087 13.8445 30.1062C14.0355 29.3322 13.6975 28.5239 12.9921 28.1468L12.9334 28.1125C12.0761 27.6569 11.018 27.9998 10.582 28.8668C9.89134 30.2482 9.42108 31.7423 9.20064 33.2805C7.92212 42.3183 14.9369 50.3373 23.96 51.0231C29.1721 51.4639 34.4822 49.3722 38.0728 45.571C44.1274 39.2812 44.8573 29.3518 40.1008 22.0137C39.5718 21.1859 38.9741 20.3972 38.3275 19.6526C38.4255 18.4427 38.5186 17.2278 38.4745 16.013C38.4549 15.4497 38.4108 13.7891 37.8426 13.5245C37.3772 13.3041 36.4416 14.2103 36.133 14.5189C35.1386 15.5182 34.3107 16.7331 33.4828 17.8696L33.4975 16.498C33.4192 14.6757 32.4688 14.2201 31.5822 16.0718C31.2148 16.836 31.0238 17.7912 30.8327 18.6141L28.5647 18.7121L27.7025 20.118L22.0888 19.9074C21.5989 19.8878 21.207 20.309 21.2511 20.7989C21.3981 22.4399 21.8879 24.2426 22.9999 25.4036C23.7984 26.2363 25.8264 25.8493 26.8992 26.251C26.8992 26.251 31.1854 30.2923 30.7886 34.897" fill="#8E4895"/>
</g>
</g>
<path d="M179.233 60H271.336" stroke="#005871" stroke-width="3" stroke-miterlimit="10" stroke-linecap="round"/>
<path d="M186.224 42.2008C184.313 42.2008 182.168 41.5934 182.168 39.0069C182.168 37.4541 183.098 36.1413 184.827 36.1413C185.386 36.1413 185.616 36.3764 186.273 36.3764C191.823 36.3764 191.823 24.7178 184.827 24.7178C181.144 24.7178 178.9 27.1622 179.953 31.2035V49.3429C178.905 51.273 177.592 52.2527 176.015 52.2527C174.438 52.2527 173.125 51.2681 173.125 49.3429V30.263C173.125 23.0719 178.44 18.9326 184.827 18.9326C199.94 18.9326 199.94 42.1959 186.228 42.1959L186.224 42.2008Z" fill="#8E4895"/>
<path d="M221.885 49.5584C221.885 51.0035 220.935 52.2526 219.034 52.2526H205.539C202.595 52.2526 200.214 49.9307 200.214 47.0454V22.5918C200.214 20.6862 201.59 19.7114 203.158 19.7114C204.725 19.7114 206.102 20.6862 206.102 22.5918L207.15 44.0279C207.15 45.5612 207.38 46.8201 208.997 46.8201H219.024C220.93 46.8201 221.875 48.1231 221.875 49.5633H221.88L221.885 49.5584Z" fill="#8E4895"/>
<path d="M245.148 51.8314H233.372C231.344 51.8314 230.428 50.4206 230.428 48.9657C230.428 47.4178 231.344 46.1001 234.421 46.1001H242.332C242.444 46.1001 242.729 45.6298 242.342 44.5521L236.791 30.6353C236.645 30.3071 236.453 30.116 236.164 30.116C235.875 30.116 235.679 30.3022 235.537 30.6353L227.675 50.3765C227.244 51.5032 226.127 52.2527 224.878 52.2527C222.801 52.2527 221.312 50.1806 222.081 48.2603L232.603 21.7983C233.132 20.3875 234.244 18.9326 236.169 18.9326C238.094 18.9326 239.157 20.3924 239.736 21.7983L249.342 45.958C250.645 49.245 248.617 51.8314 245.144 51.8314H245.148Z" fill="#8E4895"/>
<path d="M276.837 21.8423V48.5346C276.837 50.881 275.147 52.2477 273.134 52.2477C271.679 52.2477 270.65 51.6403 269.945 50.3715L259.354 31.5708C259.168 31.2426 258.649 31.3847 259.702 31.757V49.333C258.654 51.2631 257.336 52.2428 255.749 52.2428C254.162 52.2428 252.844 51.2582 252.844 49.333V22.5869C252.844 20.5197 254.627 18.9227 256.547 18.9227C257.811 18.9227 258.987 19.442 259.736 20.8038L270.376 39.6045C270.518 39.9327 270.984 39.7906 270.984 39.4183V21.8423C270.984 19.9122 272.34 18.9325 273.937 18.9325C275.534 18.9325 276.842 19.9171 276.842 21.8423H276.837Z" fill="#8E4895"/>
<path d="M216.987 22.0333L223.776 24.9186C224.001 25.0264 224.168 25.2468 224.192 25.5015C224.143 27.3679 224.334 29.2783 224.006 31.1251C223.311 35.0439 220.607 38.4141 216.987 39.8592H216.717C216.105 39.6143 210.182 33.8487 209.697 31.1251C209.364 29.2783 209.565 27.3679 209.511 25.5015C209.536 25.2517 209.707 25.0264 209.928 24.9186L216.717 22.0333H216.987Z" fill="#005871"/>
<path d="M81.3914 36.7977C81.3914 45.2967 75.4298 52.2086 66.2989 52.2086C57.168 52.2086 51.2064 45.2918 51.2064 36.7977C51.2064 28.3036 57.1092 21.4407 66.2989 21.4407C75.4886 21.4407 81.3914 28.3526 81.3914 36.7977ZM74.4158 36.7977C74.4158 31.9236 71.4669 28.0733 66.3038 28.0733C61.1407 28.0733 58.1918 31.9285 58.1918 36.7977C58.1918 41.6669 61.1456 45.5808 66.3038 45.5808C71.462 45.5808 74.4158 41.7256 74.4158 36.7977Z" fill="#005871"/>
<path d="M107.79 40.8438V42.4898C107.79 49.0146 102.798 52.1938 97.7428 52.1938C92.6874 52.1938 87.5831 48.9608 87.5831 42.4898V16.4392C87.5831 14.1124 89.0576 12.922 90.9876 12.922C92.9177 12.922 94.3334 14.1124 94.3334 16.4392V21.4308C94.3334 21.7149 94.5587 21.9403 94.8428 21.9403H101.652C105.967 21.9403 105.909 28.3525 101.652 28.3525H94.8428C94.5587 28.3525 94.3334 28.5778 94.3334 28.8619V42.2007C94.3334 44.699 96.0381 45.9481 97.684 45.9481C99.3299 45.9481 101.03 44.699 101.03 42.2007V40.8389C101.03 38.5121 102.45 37.3218 104.375 37.3218C106.301 37.3218 107.78 38.5121 107.78 40.8389" fill="#005871"/>
<path d="M134.007 40.8438V42.4898C134.007 49.0146 129.015 52.1938 123.96 52.1938C118.905 52.1938 113.8 48.9608 113.8 42.4898V16.4392C113.8 14.1124 115.275 12.922 117.205 12.922C119.135 12.922 120.555 14.1124 120.555 16.4392V21.4308C120.555 21.7149 120.781 21.9403 121.065 21.9403H127.874C132.185 21.9403 132.131 28.3525 127.874 28.3525H121.065C120.781 28.3525 120.555 28.5778 120.555 28.8619V42.2007C120.555 44.699 122.26 45.9481 123.901 45.9481C125.542 45.9481 127.247 44.699 127.247 42.2007V40.8389C127.247 38.5121 128.667 37.3218 130.597 37.3218C132.528 37.3218 134.002 38.5121 134.002 40.8389" fill="#005871"/>
<path d="M155.33 21.4847C154.904 21.4504 154.473 21.4357 154.037 21.4357C144.842 21.4357 138.945 28.3622 138.945 36.8172C138.945 45.2721 144.847 52.2526 154.037 52.2526C154.522 52.2526 155.002 52.233 155.467 52.1938H155.487C163.8 51.5031 169.125 44.8753 169.125 36.8172C169.125 28.759 163.726 22.1019 155.325 21.4847H155.33ZM155.33 45.5268C154.914 45.5856 154.483 45.615 154.037 45.615C148.869 45.615 145.92 41.7549 145.92 36.8172C145.92 31.8794 148.869 28.0781 154.037 28.0781C154.483 28.0781 154.914 28.1075 155.33 28.1663C159.69 28.7541 162.149 32.3595 162.149 36.8172C162.149 41.2749 159.69 44.939 155.33 45.5268Z" fill="#005871"/>
</svg>
