<svg width="28" height="13" viewBox="0 0 28 13" fill="none" xmlns="http://www.w3.org/2000/svg">
<rect width="28" height="13" rx="4" fill="#FAB500"/>
<path d="M7.64 3C7.98 3 8.30333 3.10333 8.61 3.31C8.91667 3.51 9.16333 3.78333 9.35 4.13C9.53667 4.47 9.63 4.84333 9.63 5.25C9.63 5.65 9.53667 6.02333 9.35 6.37C9.16333 6.71667 8.91667 6.99333 8.61 7.2C8.30333 7.4 7.98 7.5 7.64 7.5H5.9V9.39C5.9 9.57 5.84667 9.71667 5.74 9.83C5.63333 9.94333 5.49333 10 5.32 10C5.15333 10 5.01667 9.94333 4.91 9.83C4.80333 9.71 4.75 9.56333 4.75 9.39V3.61C4.75 3.43667 4.80667 3.29333 4.92 3.18C5.04 3.06 5.18667 3 5.36 3H7.64ZM7.64 6.36C7.76667 6.36 7.89 6.30667 8.01 6.2C8.13667 6.09333 8.23667 5.95667 8.31 5.79C8.39 5.61667 8.43 5.43667 8.43 5.25C8.43 5.06333 8.39 4.88667 8.31 4.72C8.23667 4.54667 8.13667 4.41 8.01 4.31C7.89 4.20333 7.76667 4.15 7.64 4.15H5.9V6.36H7.64ZM11.9754 9.39C11.9754 9.56333 11.9154 9.71 11.7954 9.83C11.6821 9.94333 11.5387 10 11.3654 10C11.1987 10 11.0587 9.94333 10.9454 9.83C10.8321 9.71 10.7754 9.56333 10.7754 9.39V3.21C10.7754 3.03667 10.8321 2.89333 10.9454 2.78C11.0654 2.66 11.2121 2.6 11.3854 2.6C11.5521 2.6 11.6921 2.66 11.8054 2.78C11.9187 2.89333 11.9754 3.03667 11.9754 3.21V9.39ZM17.2919 4.65C17.4652 4.65 17.6085 4.71 17.7219 4.83C17.8352 4.94333 17.8919 5.08667 17.8919 5.26V7.8C17.8919 8.52 17.6919 9.08333 17.2919 9.49C16.8985 9.89667 16.3352 10.1 15.6019 10.1C14.8685 10.1 14.3052 9.89667 13.9119 9.49C13.5185 9.08333 13.3219 8.52 13.3219 7.8V5.26C13.3219 5.08667 13.3785 4.94333 13.4919 4.83C13.6052 4.71 13.7485 4.65 13.9219 4.65C14.0952 4.65 14.2385 4.71 14.3519 4.83C14.4652 4.94333 14.5219 5.08667 14.5219 5.26V7.8C14.5219 8.20667 14.6119 8.51 14.7919 8.71C14.9719 8.90333 15.2419 9 15.6019 9C15.9685 9 16.2419 8.90333 16.4219 8.71C16.6019 8.51 16.6919 8.20667 16.6919 7.8V5.26C16.6919 5.08667 16.7485 4.94333 16.8619 4.83C16.9752 4.71 17.1185 4.65 17.2919 4.65ZM18.881 9.17C18.821 9.09 18.791 8.99 18.791 8.87C18.791 8.69667 18.8777 8.55 19.051 8.43C19.1443 8.37 19.241 8.34 19.341 8.34C19.481 8.34 19.6143 8.40333 19.741 8.53C19.941 8.73667 20.1477 8.89 20.361 8.99C20.581 9.09 20.8443 9.14 21.151 9.14C21.671 9.12 21.931 8.92333 21.931 8.55C21.931 8.35667 21.841 8.21 21.661 8.11C21.4877 8.01 21.2143 7.91 20.841 7.81C20.4543 7.70333 20.1377 7.59667 19.891 7.49C19.651 7.38333 19.441 7.22333 19.261 7.01C19.0877 6.79 19.001 6.49667 19.001 6.13C19.001 5.81 19.091 5.53333 19.271 5.3C19.4577 5.06 19.6977 4.87667 19.991 4.75C20.291 4.61667 20.6077 4.55 20.941 4.55C21.281 4.55 21.621 4.61333 21.961 4.74C22.301 4.86667 22.5677 5.05333 22.761 5.3C22.8477 5.40667 22.891 5.52667 22.891 5.66C22.891 5.81333 22.8277 5.94 22.701 6.04C22.6077 6.11333 22.501 6.15 22.381 6.15C22.2343 6.15 22.1143 6.10333 22.021 6.01C21.901 5.86333 21.7443 5.74667 21.551 5.66C21.3643 5.57333 21.151 5.53 20.911 5.53C20.4043 5.53 20.151 5.71333 20.151 6.08C20.151 6.22667 20.1977 6.34667 20.291 6.44C20.3843 6.52667 20.501 6.59667 20.641 6.65C20.7877 6.69667 20.991 6.75667 21.251 6.83C21.611 6.93 21.911 7.03333 22.151 7.14C22.391 7.24667 22.5943 7.41 22.761 7.63C22.9277 7.85 23.011 8.14 23.011 8.5C23.011 8.82667 22.9143 9.11333 22.721 9.36C22.5277 9.6 22.2777 9.78333 21.971 9.91C21.671 10.0367 21.361 10.1 21.041 10.1C20.601 10.1 20.191 10.0267 19.811 9.88C19.431 9.73333 19.121 9.49667 18.881 9.17Z" fill="black"/>
</svg>
