<svg width="20" height="20" viewBox="0 0 20 20" fill="none" xmlns="http://www.w3.org/2000/svg">
<path d="M9.80001 11L10.7 11.9C10.8833 12.0833 10.975 12.3167 10.975 12.6C10.975 12.8833 10.8833 13.1167 10.7 13.3C10.5167 13.4833 10.2833 13.575 10 13.575C9.71667 13.575 9.48334 13.4833 9.30001 13.3L6.70001 10.7C6.50001 10.5 6.40001 10.2667 6.40001 10C6.40001 9.73333 6.50001 9.5 6.70001 9.3L9.30001 6.7C9.48334 6.51666 9.71667 6.425 10 6.425C10.2833 6.425 10.5167 6.51666 10.7 6.7C10.8833 6.88333 10.975 7.11666 10.975 7.4C10.975 7.68333 10.8833 7.91666 10.7 8.1L9.80001 9H13C13.2833 9 13.5207 9.096 13.712 9.288C13.9033 9.48 13.9993 9.71733 14 10C14.0007 10.2827 13.9047 10.5203 13.712 10.713C13.5193 10.9057 13.282 11.0013 13 11H9.80001ZM10 20C11.3833 20 12.6833 19.7373 13.9 19.212C15.1167 18.6867 16.175 17.9743 17.075 17.075C17.975 16.1757 18.6873 15.1173 19.212 13.9C19.7367 12.6827 19.9993 11.3827 20 10C20.0007 8.61733 19.738 7.31733 19.212 6.1C18.686 4.88267 17.9737 3.82433 17.075 2.925C16.1763 2.02567 15.118 1.31333 13.9 0.788C12.682 0.262667 11.382 0 10 0C8.61801 0 7.31801 0.262667 6.10001 0.788C4.88201 1.31333 3.82368 2.02567 2.92501 2.925C2.02634 3.82433 1.31368 4.88267 0.787012 6.1C0.260345 7.31733 -0.00198936 8.61733 1.14441e-05 10C0.00201035 11.3827 0.264677 12.6827 0.788012 13.9C1.31134 15.1173 2.02368 16.1757 2.92501 17.075C3.82634 17.9743 4.88468 18.687 6.10001 19.213C7.31534 19.739 8.61534 20.0013 10 20ZM10 18C7.76667 18 5.87501 17.225 4.32501 15.675C2.77501 14.125 2.00001 12.2333 2.00001 10C2.00001 7.76666 2.77501 5.875 4.32501 4.325C5.87501 2.775 7.76667 2 10 2C12.2333 2 14.125 2.775 15.675 4.325C17.225 5.875 18 7.76666 18 10C18 12.2333 17.225 14.125 15.675 15.675C14.125 17.225 12.2333 18 10 18Z" fill="white"/>
</svg>
