<svg width="133" height="96" viewBox="0 0 133 96" fill="none" xmlns="http://www.w3.org/2000/svg">
<path d="M62.3668 4.40148C64.239 8.28128 62.6191 12.9472 58.7513 14.8225C54.8779 16.6978 50.2197 15.0751 48.3475 11.201C46.4753 7.32116 48.0953 2.65529 51.9631 0.779959C55.8364 -1.09537 60.4946 0.527295 62.3668 4.40148Z" fill="#005871"/>
<path d="M89.3406 29.2132C88.8305 27.9498 88.1746 26.7483 87.4235 25.6085C86.4762 23.6826 85.5176 22.9808 83.5333 21.5883C83.0568 21.2514 82.5636 20.937 82.0815 20.6114C81.9357 20.5103 81.7396 20.6226 81.7564 20.8023L81.9582 23.4356C81.2519 23.7051 80.4111 24.0251 79.8729 24.5698C79.2395 25.2098 79.2003 26.198 78.309 26.6809C78.1128 26.7876 77.8942 26.855 77.6812 26.9223C77.4177 27.0066 77.2496 27.2648 77.2832 27.54L77.3336 28.0341C77.6195 28.8987 78.2025 29.5388 79.0209 29.915C79.929 30.3249 80.568 30.2238 81.2519 31.0997C81.2519 31.0997 83.8248 36.1362 81.6499 40.4034C81.2014 41.1558 80.6801 41.8632 80.0803 42.5033C77.2776 45.6307 72.7259 47.1973 68.7348 46.2091C65.3267 45.4398 62.3558 42.8346 61.4253 39.4433C60.8816 37.5286 61.1843 35.6028 62.1204 34.0082C63.5218 31.6107 63.2863 28.6012 61.4309 26.5349L61.358 26.4563C61.358 26.4563 58.9253 23.7612 54.3792 18.7136C51.683 15.7265 46.8286 16.2711 44.9116 19.8084C44.138 21.2402 43.4822 22.7393 42.9665 24.2834C38.9305 36.0295 43.3364 49.4656 53.8243 56.0574C60.0688 60.0663 68.0958 61.1275 75.1139 58.7356C87.3002 54.693 94.2005 41.2288 89.3518 29.2132" fill="#005871"/>
<g opacity="0.76">
<mask id="mask0_763_6371" style="mask-type:luminance" maskUnits="userSpaceOnUse" x="51" y="15" width="40" height="44">
<path d="M90.9268 15.4624H51.8398V58.5501H90.9268V15.4624Z" fill="white"/>
</mask>
<g mask="url(#mask0_763_6371)">
<path d="M76.7173 39.9819C76.65 42.8174 73.9762 46.1638 71.4593 47.4327C68.5277 48.988 64.6599 48.6455 61.8571 46.7477C58.6116 44.6534 56.7001 40.549 57.0028 36.6075C57.0476 35.9 57.1597 35.1982 57.3279 34.5075C57.5465 33.6204 57.1597 32.694 56.3526 32.2616L56.2853 32.2223C55.3043 31.7002 54.0935 32.0932 53.5947 33.087C52.8043 34.6704 52.2662 36.3829 52.0139 38.1459C50.5509 48.5052 58.5779 57.6965 68.9032 58.4826C74.8674 58.9879 80.9438 56.5904 85.0526 52.2334C91.981 45.024 92.8162 33.6429 87.3733 25.232C86.7679 24.2831 86.084 23.3791 85.3441 22.5256C85.4562 21.1388 85.5627 19.7463 85.5122 18.3539C85.4898 17.7082 85.4394 15.8048 84.7891 15.5016C84.2566 15.2489 83.186 16.2876 82.8328 16.6414C81.6949 17.7868 80.7476 19.1792 79.8003 20.4819L79.8171 18.9097C79.7274 16.821 78.6399 16.2989 77.6253 18.4213C77.2049 19.2972 76.9863 20.392 76.7677 21.3353L74.1724 21.4476L73.1858 23.059L66.7619 22.8176C66.2014 22.7952 65.7529 23.278 65.8034 23.8395C65.9716 25.7204 66.5321 27.7867 67.8045 29.1174C68.7182 30.0719 71.0389 29.6283 72.2665 30.0887C72.2665 30.0887 77.1713 34.7209 76.7173 39.9988" fill="#8E4895"/>
</g>
</g>
<path d="M75.8594 95H129.222" stroke="#005871" stroke-miterlimit="10" stroke-linecap="round"/>
<path d="M79.909 85.775C78.8022 85.775 77.559 85.4225 77.559 83.9215C77.559 83.0203 78.0983 82.2584 79.1002 82.2584C79.4237 82.2584 79.5571 82.3949 79.9374 82.3949C83.153 82.3949 83.153 75.6289 79.1002 75.6289C76.9659 75.6289 75.666 77.0475 76.2762 79.3928V89.9199C75.6688 91.04 74.9082 91.6085 73.9943 91.6085C73.0805 91.6085 72.3198 91.0371 72.3198 89.9199V78.847C72.3198 74.6737 75.3992 72.2715 79.1002 72.2715C87.8558 72.2715 87.8558 85.7722 79.9119 85.7722L79.909 85.775Z" fill="#8E4895"/>
<path d="M100.571 90.0446C100.571 90.8833 100.02 91.6082 98.9193 91.6082H91.1002C89.3945 91.6082 88.0151 90.2607 88.0151 88.5862V74.3947C88.0151 73.2889 88.8127 72.7231 89.7209 72.7231C90.6291 72.7231 91.4266 73.2889 91.4266 74.3947L92.034 86.835C92.034 87.7248 92.1673 88.4555 93.1039 88.4555H98.9136C100.018 88.4555 100.565 89.2117 100.565 90.0475H100.568L100.571 90.0446Z" fill="#8E4895"/>
<path d="M114.049 91.364H107.226C106.051 91.364 105.521 90.5453 105.521 89.701C105.521 88.8026 106.051 88.0379 107.834 88.0379H112.417C112.483 88.0379 112.647 87.765 112.423 87.1396L109.207 79.063C109.122 78.8726 109.012 78.7617 108.844 78.7617C108.677 78.7617 108.563 78.8697 108.481 79.063L103.926 90.5197C103.676 91.1736 103.029 91.6085 102.305 91.6085C101.102 91.6085 100.239 90.406 100.685 89.2916L106.781 73.9346C107.087 73.1158 107.732 72.2715 108.847 72.2715C109.962 72.2715 110.578 73.1187 110.913 73.9346L116.479 87.9555C117.234 89.863 116.059 91.364 114.047 91.364H114.049Z" fill="#8E4895"/>
<path d="M132.409 73.96V89.4506C132.409 90.8124 131.43 91.6055 130.263 91.6055C129.42 91.6055 128.824 91.253 128.416 90.5167L122.28 79.6059C122.172 79.4154 121.871 79.4978 122.481 79.7139V89.914C121.874 91.0341 121.11 91.6027 120.191 91.6027C119.271 91.6027 118.508 91.0313 118.508 89.914V74.3921C118.508 73.1924 119.541 72.2656 120.653 72.2656C121.386 72.2656 122.067 72.567 122.501 73.3573L128.666 84.2681C128.748 84.4586 129.017 84.3762 129.017 84.1601V73.96C129.017 72.8399 129.804 72.2713 130.729 72.2713C131.654 72.2713 132.412 72.8427 132.412 73.96H132.409Z" fill="#8E4895"/>
<path d="M97.7328 74.0708L101.666 75.7452C101.797 75.8078 101.894 75.9357 101.908 76.0835C101.879 77.1667 101.99 78.2754 101.8 79.3471C101.397 81.6214 99.8302 83.5773 97.7328 84.4159H97.5767C97.2219 84.2738 93.7906 80.9277 93.5096 79.3471C93.3167 78.2754 93.433 77.1667 93.4018 76.0835C93.416 75.9386 93.5153 75.8078 93.643 75.7452L97.5767 74.0708H97.7328Z" fill="#005871"/>
<path d="M17.4887 83.8562C17.4887 88.7885 14.0346 92.7998 8.74433 92.7998C3.45402 92.7998 0 88.7857 0 83.8562C0 78.9267 3.41996 74.9438 8.74433 74.9438C14.0687 74.9438 17.4887 78.9551 17.4887 83.8562ZM13.4471 83.8562C13.4471 81.0275 11.7386 78.7931 8.74716 78.7931C5.75576 78.7931 4.0472 81.0304 4.0472 83.8562C4.0472 86.682 5.7586 88.9534 8.74716 88.9534C11.7357 88.9534 13.4471 86.7161 13.4471 83.8562Z" fill="#005871"/>
<path d="M32.7835 86.2042V87.1594C32.7835 90.9461 29.8914 92.7911 26.9625 92.7911C24.0335 92.7911 21.0762 90.9148 21.0762 87.1594V72.0412C21.0762 70.6908 21.9305 70 23.0487 70C24.1669 70 24.9871 70.6908 24.9871 72.0412V74.938C24.9871 75.1029 25.1177 75.2337 25.2823 75.2337H29.2273C31.7277 75.2337 31.6937 78.955 29.2273 78.955H25.2823C25.1177 78.955 24.9871 79.0857 24.9871 79.2506V86.9917C24.9871 88.4416 25.9748 89.1665 26.9284 89.1665C27.882 89.1665 28.8669 88.4416 28.8669 86.9917V86.2014C28.8669 84.851 29.6899 84.1602 30.8053 84.1602C31.9207 84.1602 32.7778 84.851 32.7778 86.2014" fill="#005871"/>
<path d="M47.973 86.2042V87.1594C47.973 90.9461 45.0809 92.7911 42.1519 92.7911C39.223 92.7911 36.2656 90.9148 36.2656 87.1594V72.0412C36.2656 70.6908 37.1199 70 38.2381 70C39.3564 70 40.1794 70.6908 40.1794 72.0412V74.938C40.1794 75.1029 40.31 75.2337 40.4746 75.2337H44.4196C46.9172 75.2337 46.886 78.955 44.4196 78.955H40.4746C40.31 78.955 40.1794 79.0857 40.1794 79.2506V86.9917C40.1794 88.4416 41.1671 89.1665 42.1179 89.1665C43.0687 89.1665 44.0563 88.4416 44.0563 86.9917V86.2014C44.0563 84.851 44.8794 84.1602 45.9976 84.1602C47.1159 84.1602 47.9701 84.851 47.9701 86.2014" fill="#005871"/>
<path d="M60.3276 74.9693C60.0807 74.9494 59.8309 74.9409 59.5783 74.9409C54.2511 74.9409 50.834 78.9607 50.834 83.8675C50.834 88.7742 54.2539 92.8253 59.5783 92.8253C59.8593 92.8253 60.1374 92.8139 60.407 92.7912H60.4184C65.2347 92.3903 68.3198 88.5439 68.3198 83.8675C68.3198 79.191 65.1922 75.3275 60.3247 74.9693H60.3276ZM60.3276 88.922C60.0863 88.9562 59.8366 88.9732 59.5783 88.9732C56.5841 88.9732 54.8755 86.733 54.8755 83.8675C54.8755 81.0019 56.5841 78.7958 59.5783 78.7958C59.8366 78.7958 60.0863 78.8129 60.3276 78.847C62.8535 79.1881 64.2783 81.2805 64.2783 83.8675C64.2783 86.4545 62.8535 88.5809 60.3276 88.922Z" fill="#005871"/>
</svg>
