<svg width="89" height="81" viewBox="0 0 89 81" fill="none" xmlns="http://www.w3.org/2000/svg">
<path d="M83.9725 47.2464C83.9679 46.814 86.3887 48.3139 87.0637 47.8454C87.4236 47.5932 86.0963 45.9086 85.1558 42.1702C84.8049 40.7739 86.1953 41.4044 85.9883 39.7874C85.7138 37.6299 82.9015 36.648 82.2671 34.2653C81.6326 31.8826 81.6327 13.8299 80.6382 11.276C80.1973 10.1544 78.8159 7.13665 78.3119 6.04664C77.853 5.05121 76.7596 2.41177 76.0081 1.59201C74.5143 -0.0430112 70.1451 3.48376 68.7818 4.51071C68.0618 5.04671 62.6893 7.11413 60.5025 11.7084C58.3157 16.3027 55.8004 15.6586 52.3762 15.4739C52.3762 15.4739 42.315 15.0595 39.6828 16.0279C37.0505 16.9963 34.6837 17.6809 33.9143 18.0503C33.1448 18.4196 31.39 19.8384 31.12 19.7078C28.6317 18.4737 26.2109 16.5639 24.1726 14.7307C21.9948 12.7714 12.6581 3.49277 11.0968 2.51086C9.53539 1.52895 8.172 3.16847 7.75804 4.89807C7.1011 7.6231 6.81762 10.5148 6.55214 13.2984C5.98969 19.1088 5.98519 24.9957 6.69613 30.7881C6.79962 31.6259 7.33508 33.396 7.74454 34.7878V34.7968C8.01452 35.6841 8.235 36.4183 8.2485 36.63C8.30249 37.2291 5.97619 39.1704 5.77821 39.7244C5.09427 41.6251 3.10094 42.5035 2.67798 44.4853C2.4215 45.7014 5.14377 44.4583 5.22026 46.4536C5.25626 47.431 1.59807 53.1964 1.83205 54.6377C2.06603 56.0791 3.74889 54.1828 4.42383 55.4575C4.82429 56.2097 1.09862 62.4164 3.83888 60.6688C6.57914 58.9212 5.45424 63.7542 6.44415 64.6145C8.2215 66.1594 13.0946 70.7672 19.2995 71.6905C26.004 72.686 38.4724 73.3841 45.2398 73.5823C52.7136 73.7985 64.7141 71.4698 73.0834 68.8124C77.16 67.5197 81.1152 63.9794 81.6596 63.1146C81.9206 62.6957 82.1366 57.1465 83.5675 54.7864C84.9984 52.4262 88.0131 56.2412 87.0232 53.8585C86.0333 51.4758 83.9769 47.9445 83.9725 47.2464Z" fill="white"/>
<path d="M83.2976 45.5571C83.779 45.3499 82.7306 49.8451 83.2481 49.728C82.2536 51.3945 82.5866 48.2506 81.3447 49.5478C77.8485 53.1917 73.2679 54.9528 68.7458 56.9527C67.9809 57.286 67.063 56.3536 67.7829 55.705C68.7548 54.8267 69.8257 54.1015 70.9326 53.4349C70.3702 53.6331 69.8032 53.7997 69.2363 53.9394C69.2498 54.2727 69.1013 54.6105 68.7053 54.8492C66.6445 56.1059 64.3722 55.2186 62.2259 54.6826C60.1336 54.1511 58.0412 53.7187 56.3134 52.3494C52.8172 49.5973 51.8453 45.0481 51.2783 40.8682C51.2243 40.4494 51.5618 40.08 51.9173 40.053C51.6113 38.3639 51.5078 36.6568 51.5933 34.9407C50.8734 36.6253 50.3559 38.3955 50.0634 40.1656C49.9824 40.625 49.2445 40.5034 49.258 40.053C49.4065 36.5217 50.3469 33.4634 52.2592 30.4681C52.7407 29.7159 53.8071 30.2249 53.6496 31.0536C52.8757 35.0669 53.7036 39.4765 55.499 43.1113C57.1638 46.494 60.1561 50.7054 64.1922 51.1153C68.8268 51.5882 73.1599 49.3316 76.6426 46.4534C78.402 44.9896 80.2828 43.2915 81.8847 41.4178C81.1827 39.7422 80.6293 37.9901 79.8734 36.3776C78.69 33.8733 77.1871 31.5356 75.3017 29.5042C71.6841 25.5991 67.027 23.1488 62.9143 19.8788C62.7883 19.7842 62.9233 19.5725 63.0628 19.6175C67.9404 21.2526 72.6605 24.3199 76.3097 27.9998C78.258 29.6213 79.9723 31.5086 81.5022 33.6255C82.4966 34.9948 81.8667 41.107 82.6541 42.6114C82.6766 44.6518 82.5371 46.6651 82.1322 48.647C82.0197 49.1785 83.4505 45.0301 83.3021 45.5526L83.2976 45.5571Z" fill="white"/>
<path d="M43.854 42.5707C43.6875 44.8768 43.2285 47.1875 42.5176 49.39C42.1531 50.5116 41.7617 51.7142 41.1902 52.7501C40.6458 53.7365 39.7548 54.5923 39.0124 55.4436C38.7289 55.7769 38.1125 55.4211 38.261 55.0112C38.378 54.6869 38.4724 54.3536 38.5624 54.0248C38.5444 54.0023 38.5309 53.9843 38.5129 53.9527C38.009 52.7997 38.387 51.7097 38.6299 50.498C38.7784 49.7729 38.9314 49.0432 39.0799 48.318C37.649 50.426 35.4307 51.9304 32.8659 52.6105C30.8141 53.1555 28.6273 53.196 26.526 52.9258C24.2357 52.633 21.7519 52.1826 19.6011 51.3358C19.2951 51.2187 18.9936 51.0656 18.7012 50.9079C19.7586 51.534 18.7956 53.178 17.7157 52.5655C15.4974 51.3313 13.2476 50.0521 10.8403 49.2324C10.0529 48.9621 9.22947 48.7279 8.40155 48.5702C8.37905 49.345 8.32955 50.1017 8.11807 50.8223C7.98308 51.2547 7.34414 51.516 7.01117 51.1061C6.73669 50.7593 7.41163 50.2368 7.28564 49.8089C7.21365 49.5882 7.03366 49.5567 6.78169 49.3044C6.77269 49.2639 6.22823 49.1783 6.22823 49.1423C6.22823 49.1738 6.21023 49.2053 6.20573 49.2279C5.96276 49.1017 5.72428 48.9666 5.4813 48.827C5.28331 48.7099 5.17532 48.5342 5.14383 48.336C5.12133 48.2234 5.12133 48.0883 5.14383 47.9712C5.69728 44.7462 6.50271 41.5978 7.60511 38.5214C7.8031 37.9674 8.28455 37.2242 8.23056 36.6252C8.21256 36.4135 7.99208 35.6748 7.7266 34.783C8.57703 33.5173 9.51295 32.3237 10.4804 31.2111C14.656 26.4142 20.3705 22.4145 26.49 20.6939C26.742 20.6218 26.8859 20.9461 26.7015 21.1038C26.751 21.1758 26.7555 21.2704 26.7105 21.374C26.427 21.9506 25.851 22.3244 25.2661 22.6532C21.005 25.9323 17.1263 29.5896 14.134 34.1208C12.5412 36.5306 11.1418 39.0935 10.0619 41.7779C9.48595 43.2148 8.955 44.6876 8.59953 46.2056C8.58153 46.2686 8.57703 46.3407 8.55903 46.4037H8.58153C10.0349 46.6244 11.4163 47.0659 12.7437 47.6379C11.8347 46.2011 11.1508 44.6111 10.7323 42.904C10.5569 42.1923 11.5783 41.7284 11.9337 42.3995C12.8112 44.0255 14.269 45.3408 15.6774 46.5073C17.0903 47.6829 18.5572 49.0297 20.3435 49.5747C23.7542 50.6197 28.2223 51.0295 31.687 50.0476C35.0257 49.1062 37.2845 46.9668 38.009 43.5436C38.8459 39.5754 38.8369 35.4766 38.2925 31.4679C38.144 30.3779 39.4624 29.1843 40.3848 30.2428C43.368 33.6659 44.1105 38.1701 43.8045 42.5842L43.854 42.5752V42.5707Z" fill="white"/>
<path d="M81.25 59.2946C79.5762 61.9341 79.6752 62.0152 77.2274 63.9655C68.8041 70.6902 57.3436 71.8207 46.8415 71.6766H46.7155C45.9596 71.6676 45.2082 71.6541 44.4657 71.6316C37.6983 71.4334 30.7779 71.4964 24.0735 70.501C17.8685 69.5777 11.3171 68.0463 9.83222 65.3122C8.34735 62.5782 5.20662 49.7232 7.13246 48.9891C9.05829 48.2549 12.3925 48.6648 15.5962 50.2367C14.6873 49.0341 13.7784 47.8405 12.874 46.6469C16.5546 49.5881 20.9193 51.6646 25.5134 52.678C27.4302 53.0969 29.428 53.3356 31.3629 52.9933C35.9975 52.1735 39.5432 48.0522 40.866 43.5435C42.1934 39.0213 41.6625 34.1703 40.6861 29.5625C40.947 30.3823 41.514 31.103 42.2474 31.5624C42.7604 29.2608 42.6479 26.8195 41.9414 24.5764C42.9989 26.1709 44.0563 27.7609 45.1137 29.3508C45.5411 26.5042 45.9641 23.6621 46.3826 20.8154C46.9045 23.3423 47.4265 25.8826 47.9394 28.4095C48.1779 27.2069 48.7584 26.0718 49.6043 25.1755C49.9373 27.9005 50.2657 30.63 50.6077 33.3551C51.0802 32.7245 51.5616 32.0894 52.0386 31.4588C51.9531 35.5936 51.8811 39.787 52.9925 43.7642C54.1129 47.7414 56.6147 51.5339 60.3988 53.1825C65.3034 55.331 71.0899 53.4347 75.54 50.4574C78.4198 48.5296 79.4457 50.8178 82.1455 48.6467C82.033 49.1782 83.4639 45.0299 83.3154 45.5524C84.0893 45.2191 81.7315 58.5244 81.25 59.2901V59.2946Z" fill="white"/>
<path d="M79.2298 33.3781C79.0633 33.0358 78.8878 32.689 78.6854 32.3466C74.2037 24.5364 61.4023 18.0684 61.4023 18.0684C61.5733 17.5729 61.7803 17.0504 62.0143 16.519C63.2247 13.7309 65.164 10.5824 66.7074 8.2673C67.8998 7.37097 69.1147 6.52418 70.3611 5.70442C71.5715 4.9207 73.3353 3.37576 74.6357 4.80359C75.2881 5.51975 75.6526 6.56472 76.0531 7.43403C79.7743 17.9783 79.2298 33.3826 79.2298 33.3826V33.3781Z" fill="#F5A9A9"/>
<path d="M76.0486 7.42944C75.6481 6.56013 75.2791 5.51516 74.6312 4.799C73.3308 3.37117 69.5061 5.53768 66.7029 8.26271C63.8996 10.9877 63.2292 13.7308 62.0098 16.5144C63.7241 14.1091 65.335 11.6634 67.2338 9.39326C67.7153 8.80771 68.1967 8.22217 68.7007 7.65014C69.0652 7.23576 69.0382 6.97001 69.4701 7.52402C69.7401 7.86634 69.6501 8.62755 69.6501 9.01941C69.6501 10.8571 69.2316 12.7399 68.9437 14.5505C68.8807 14.9289 69.4116 15.0955 69.5286 14.7082C70.0731 12.902 70.6895 11.0868 71.6704 9.46082C72.0484 8.83474 72.9618 6.95199 73.6638 8.042C73.9202 8.44288 73.8707 9.47433 73.9337 9.95628C74.0102 10.5328 74.0732 11.1139 74.1317 11.6904C74.5727 15.9108 74.5457 20.1853 74.1812 24.4057C74.1407 24.8831 74.8696 24.9552 74.9911 24.5138C75.2116 23.7165 75.4366 22.9148 75.7561 22.1446C75.9406 21.6762 76.161 21.2167 76.4445 20.8023C76.9485 20.0727 76.989 20.0501 77.2004 20.6762C77.8349 22.5004 77.8214 24.7345 78.0419 26.6488C78.2624 28.545 78.4738 30.4368 78.6898 32.3375C78.8878 32.6799 79.0678 33.0177 79.2343 33.369C79.2343 33.369 79.7787 17.9692 76.0575 7.42043L76.0486 7.42944Z" fill="#F18D8C"/>
<path d="M11.3485 33.5042C10.75 34.1888 10.1471 34.9185 9.54415 35.6797C9.49915 35.1842 8.27076 31.5674 8.11327 30.2972C7.45633 24.9597 7.46533 19.5367 7.98278 14.1812C8.23026 11.6184 8.49124 8.95188 9.09419 6.44305C9.47215 4.84857 10.6645 4.18646 12.1944 4.92965C12.2619 4.95667 12.3474 5.01523 12.4554 5.0963C12.6084 5.25845 17.5849 10.2221 19.8033 13.929C20.4287 14.9785 21.1711 15.9379 21.9361 16.7982C23.9069 19.0097 26.0082 20.5096 26.4897 20.9915C27.1151 21.6086 19.4253 24.2255 11.344 33.4951L11.353 33.5042H11.3485Z" fill="#F5A9A9"/>
<path d="M13.8234 12.6186C14.0934 16.6813 15.3578 20.5774 17.6571 24.0862C18.0711 24.7213 17.0676 25.5005 16.6042 24.9014C16.0237 24.1447 15.4343 23.388 14.8493 22.6358C14.4489 22.1764 14.0574 21.7125 13.6704 21.2441C13.5175 21.2441 13.3735 21.199 13.27 21.0684C12.7975 20.4874 12.3611 19.8883 11.9156 19.3118C10.3812 18.7577 10.9257 20.9378 11.0157 21.4603C11.4386 24.0547 12.5725 26.4689 14.2374 28.4958C14.6874 29.0408 14.1294 29.8515 13.468 29.5002C12.3386 28.8967 11.2406 28.2706 10.1877 27.5499C9.97626 27.4058 9.76478 27.2436 9.5533 27.068C9.4858 27.5319 9.56679 28.0814 9.62079 28.3877C9.83677 29.6128 10.3137 30.8109 10.7547 31.9685C10.9527 32.4865 11.1552 33.0045 11.3576 33.5134C10.7592 34.1981 10.1562 34.9277 9.5533 35.689C9.5083 35.1935 8.27991 31.5766 8.12242 30.3065C7.46998 24.969 7.47447 19.546 7.99193 14.1905C8.23941 11.6276 8.50039 8.96116 9.10333 6.45233C9.4813 4.85785 10.6737 4.19574 12.2036 4.93893C12.2711 4.96595 12.3566 5.02451 12.4645 5.10558C12.6175 5.26773 17.5941 10.2313 19.8124 13.9383C20.4379 14.9877 21.1803 15.9471 21.9452 16.8074C21.1218 16.1003 20.2939 15.4247 19.3984 14.8031C18.1116 13.9067 16.7212 13.0555 15.2723 12.4519C14.5659 12.1546 14.1069 12.2717 13.8189 12.6186L13.8279 12.6095L13.8234 12.6186Z" fill="#F18D8C"/>
<path d="M55.1878 41.0011C54.9336 41.2339 54.7449 41.391 54.6287 41.6936C54.5416 41.9264 54.4762 42.165 54.4254 42.4094C54.2947 43.0205 54.2076 43.6257 54.2512 44.2484C54.3165 45.3308 54.6069 46.39 55.4709 47.2513C56.3204 48.0893 57.7361 48.5083 59.0503 48.2639C60.4878 47.9903 61.497 47.0359 62.0052 45.9768C62.8983 44.1262 62.5425 41.7111 61.2501 40.0351C60.5386 39.104 59.377 38.2369 57.9249 38.3416C56.4728 38.4464 55.4927 39.395 54.8175 40.3552C53.5179 42.2116 52.7047 45.1213 54.7013 46.8672C55.6306 47.6819 57.1698 48.0602 58.4985 47.6936C60.1175 47.2455 60.7274 46.0175 60.8581 44.7605C60.9234 44.2077 60.8944 43.6606 60.8436 43.1078C60.7782 42.5026 60.7274 41.8624 60.4878 41.2921C60.2047 40.617 59.6238 40.0467 58.7526 39.8314C57.8378 39.6045 56.8286 39.8547 56.1171 40.3435C55.1224 41.0477 54.7449 42.2756 54.5488 43.2824C54.3165 44.5568 54.4617 46.3551 56.0009 47.1C58.0411 48.0893 59.9505 46.4773 60.5459 45.0166C61.0033 43.8934 60.8145 42.6073 60.2555 41.5365C59.9723 41.007 59.6601 40.4657 59.1374 40.0467C58.2589 39.3426 56.923 39.4415 56.1824 40.2097C55.6887 40.7276 55.4273 41.4434 55.3039 42.0894C55.1514 42.8226 55.2676 43.5617 55.4564 44.2717C55.5943 44.8013 56.3349 45.1388 56.9738 45.069C57.6635 44.9875 58.1427 44.551 58.1718 43.9749C58.1935 43.4744 58.3024 43.2184 58.4113 42.7004C58.4622 42.4676 58.542 42.2407 58.6146 42.0137C58.6509 41.9032 58.6945 41.7868 58.7308 41.6762C58.7453 41.6355 58.7671 41.5831 58.7816 41.5423C58.8833 41.3154 58.847 41.3561 58.68 41.6762C58.4477 41.7809 58.2226 41.8915 58.0048 41.9904C57.9249 42.0137 57.0391 41.8566 57.0391 41.7635C57.0391 41.8042 57.1263 41.8857 57.1553 41.9148C57.1916 41.9672 57.3731 42.2931 57.286 42.101C57.3368 42.2349 57.3659 42.3687 57.4022 42.4967C57.453 42.6422 57.4022 42.4735 57.4022 42.4444C57.4022 42.5491 57.4167 42.6364 57.4239 42.7412V43.0961C57.4239 43.1369 57.3731 43.3929 57.4239 43.2067C57.4602 43.0438 57.4239 43.2358 57.4094 43.2591C57.3731 43.3929 57.3296 43.5268 57.2787 43.6548C57.2569 43.7072 57.2279 43.7654 57.2061 43.8178C57.3078 43.5326 57.2279 43.7654 57.1916 43.8469C57.1117 43.9691 57.0537 44.1029 56.9738 44.2135C56.9375 44.2659 56.6689 44.6034 56.8068 44.4579C56.9448 44.3066 56.785 44.4696 56.756 44.487C56.8286 44.3939 57.0391 44.4346 56.7705 44.4754C57.3441 44.3823 57.2061 44.3124 57.8305 44.5801C58.5057 44.8769 58.3896 44.8653 58.1863 44.5801C58.3242 44.7838 58.1718 44.5277 58.1355 44.4346C58.1137 44.3532 58.0846 44.26 58.0556 44.1786C58.0556 44.2077 58.0701 44.4055 58.0556 44.2309C58.0556 44.0796 58.0338 43.9167 58.0411 43.7596C58.0411 43.6781 58.1064 43.1951 58.0556 43.4511C58.1064 43.1427 58.1935 42.8285 58.2952 42.5317C58.3315 42.4211 58.3751 42.2989 58.4331 42.1825C58.3024 42.4269 58.4331 42.2116 58.4549 42.1825C58.3823 42.2349 58.3242 42.2756 58.2371 42.328C58.4912 42.165 58.2879 42.328 58.2081 42.328C58.0193 42.328 58.0556 42.3571 57.8015 42.3163C57.7216 42.3047 57.649 42.2872 57.5692 42.2756C57.3949 42.2058 57.2787 42.101 57.2352 41.9672C57.1843 41.9672 57.2134 41.8857 57.2569 42.0195C57.3586 42.3571 57.3731 42.4385 57.4094 42.8343C57.4312 43.1602 57.4602 43.4977 57.4457 43.8352C57.4457 44.0214 57.4457 44.1902 57.4167 44.3764C57.4167 44.4695 57.4022 44.5685 57.3949 44.6616C57.3949 44.6907 57.3441 44.9351 57.3949 44.7722C57.4312 44.6092 57.315 44.9875 57.3078 45.0457C57.286 45.1097 57.1771 45.2785 57.3078 45.034C57.2933 45.0573 57.1553 45.2086 57.286 45.0864C57.4167 44.9526 57.2497 45.0981 57.2352 45.1155C57.3659 44.97 57.4239 45.0049 57.2715 45.0631C57.2715 45.0631 57.5764 44.9584 57.4022 45.0108C57.2715 45.034 57.3223 45.034 57.5546 44.9991H57.4239C57.4239 44.9991 57.1408 44.9758 57.4022 44.9991C57.6563 45.0282 57.3804 44.9875 57.315 44.9758C57.2497 44.9642 57.1844 44.9468 57.1263 44.9351C57.1771 44.9468 57.4602 45.0573 57.1771 44.9351C56.8867 44.8129 57.3659 45.0457 57.0972 44.8944C56.9157 44.7896 57.0101 44.8245 57.0754 44.8944C57.0101 44.8245 56.9593 44.7489 56.9085 44.6791C56.8867 44.6383 56.7923 44.4521 56.8867 44.6558C56.8576 44.5918 56.8359 44.5336 56.8068 44.4696C56.756 44.3241 56.7197 44.1844 56.6906 44.0389C56.7269 44.2542 56.6906 43.8643 56.6906 43.8061C56.6906 43.6315 56.6906 43.457 56.7052 43.2882C56.7415 42.811 56.923 42.1941 57.1916 41.6122C57.2642 41.4492 57.4602 41.1233 57.6272 40.908C57.6635 40.8556 57.7071 40.8033 57.7434 40.7567C57.7434 40.7567 57.8813 40.5821 57.7942 40.6869C57.845 40.6345 57.8959 40.5938 57.9467 40.553C57.9612 40.5414 58.1645 40.3668 58.0628 40.4483C58.15 40.3784 58.1427 40.3784 58.2661 40.3668C58.0992 40.3784 58.346 40.3668 58.3533 40.3668C58.317 40.3668 58.2371 40.3435 58.3533 40.3901C58.4694 40.4192 58.709 40.5647 58.8397 40.6752C59.2971 41.1117 59.5367 41.7053 59.7037 42.2465C59.9941 43.2358 59.9723 44.5627 59.3842 45.453C59.0793 45.9128 58.6872 46.1863 58.1718 46.1805C57.9394 46.1805 58.3097 46.2096 58.0919 46.1805C58.0701 46.1805 57.8523 46.1165 57.9104 46.1397C57.9104 46.1397 57.5909 45.9884 57.5764 45.9768C57.3223 45.8255 57.1408 45.6509 56.9811 45.4065C56.5745 44.8245 56.5091 44.1378 56.393 43.4977C56.3276 43.1078 56.2768 42.7295 56.255 42.3454C56.255 42.1534 56.2405 41.9497 56.2332 41.7518C56.2187 41.5191 56.0953 41.3445 55.9937 41.1292C55.863 40.8731 55.4346 40.7102 55.1805 40.9546V40.9662L55.1878 41.0011Z" fill="#005871"/>
<path d="M30.659 42.0578C30.2218 42.4536 29.9737 42.9373 29.7255 43.4485C29.4361 44.0366 29.3533 44.6468 29.5306 45.2734C29.891 46.5651 30.9603 47.5875 32.3073 48.0328C33.7488 48.5165 35.397 48.1372 36.36 47.0214C37.3525 45.8616 37.5534 44.4269 37.4884 42.9813C37.4352 41.6291 37.128 40.1175 35.9524 39.194C35.3321 38.7048 34.6054 38.375 33.7842 38.3365C33.028 38.2981 32.3309 38.5784 31.6988 38.9357C30.529 39.6118 29.5424 40.4583 28.993 41.6566C28.4849 42.7834 28.349 44.0311 28.6799 45.2239C29.0402 46.5541 30.0505 47.7194 31.4565 48.1867C33.0753 48.7143 34.5877 47.7359 35.4384 46.5157C36.2064 45.4273 36.3896 44.0257 36.1769 42.7669C35.9583 41.5137 35.0898 40.057 33.6661 39.7272C32.1832 39.3919 30.5644 40.1395 29.9441 41.4367C29.3002 42.7559 29.377 44.3884 29.9973 45.7076C30.7358 47.2797 32.9099 47.7414 34.4104 46.829C35.7043 46.0374 36.5136 44.4764 36.36 43.0362C36.2537 42.1183 35.8224 41.3487 35.013 40.8101C34.3573 40.3758 33.4711 40.2109 32.6913 40.4143C30.9898 40.8485 30.4108 42.7284 30.5644 44.1851C30.6472 44.9766 30.8421 45.8176 31.5274 46.3672C32.4195 47.0818 33.7547 47.0433 34.5109 46.1639C35.5861 44.9106 36.0528 43.3001 35.3084 41.794C35.0189 41.2058 34.4813 40.6727 33.8492 40.3978C33.1344 40.09 32.2423 40.1944 31.8169 40.887C31.173 41.9589 30.9366 43.2891 31.3915 44.4544C31.6101 45.0261 31.9823 45.5537 32.449 45.966C32.9867 46.4497 34.1682 46.708 34.7413 46.0924C34.3573 46.1419 33.9733 46.1914 33.5893 46.2298C33.8906 46.3563 34.1682 46.4442 34.4813 46.4992C35.3734 46.6421 35.911 45.6032 35.1135 45.1085C34.9776 45.0315 34.8653 44.9326 34.7413 44.8392C34.7944 45.1964 34.8476 45.5537 34.889 45.911C35.1489 45.4988 35.0662 44.7842 34.8181 44.3994C34.7885 44.35 34.4223 43.8882 34.6408 44.1796C34.5995 44.1191 34.5463 44.0641 34.505 43.9982C34.4518 43.9212 34.4104 43.8333 34.3573 43.7563C34.245 43.6024 34.4636 44.0531 34.3573 43.7343C34.2923 43.5694 34.2509 43.388 34.1919 43.2231C34.1269 43.0472 34.1919 43.52 34.1919 43.1737V42.9318C34.1919 42.9318 34.2332 42.5635 34.1919 42.7559C34.1623 42.9483 34.245 42.58 34.245 42.58C34.2687 42.5031 34.2982 42.4261 34.3159 42.3492C34.245 42.6075 34.3455 42.2997 34.3868 42.2447C33.7133 42.4096 33.0398 42.5745 32.3545 42.7339C32.3841 42.7559 32.4195 42.7614 32.4609 42.7834C32.5967 42.8603 32.5849 42.8494 32.4313 42.7339C32.4195 42.7449 32.5849 42.8494 32.5849 42.8768C32.5554 42.8384 32.5199 42.7999 32.4904 42.7504C32.5318 42.8109 32.5731 42.8658 32.6026 42.9263C32.7681 43.1462 32.6026 42.8878 32.5908 42.8768C32.6145 42.8988 32.7031 43.1572 32.6854 43.1737C32.6854 43.1737 32.6854 42.8054 32.6735 43.1077C32.6735 43.2231 32.6735 43.3386 32.6617 43.454C32.6913 43.2011 32.6499 43.432 32.6086 43.5529C32.6086 43.5529 32.455 43.9102 32.5436 43.7288C32.6499 43.5364 32.4372 43.8937 32.449 43.8827C32.3959 43.9707 32.3368 44.0586 32.2718 44.1411L32.2305 44.1906C32.1596 44.2822 32.1635 44.2785 32.2423 44.1796C32.2127 44.207 32.1891 44.229 32.1596 44.2565C32.5022 44.1796 32.8449 44.1026 33.1875 44.0147C33.3352 44.0916 33.477 44.1686 33.6129 44.2455C33.5006 44.1411 33.5065 44.1466 33.6424 44.295C33.4475 44.0806 33.6424 44.3445 33.6542 44.3555C33.6129 44.328 33.5302 43.8058 33.5715 44.0861C33.542 43.8553 33.5479 43.6134 33.5479 43.3825C33.5479 43.3441 33.5893 43.1132 33.5479 43.3331C33.5715 43.2451 33.5774 43.1572 33.6129 43.0802C33.6365 43.0033 33.6542 42.9043 33.6956 42.8274C33.5302 43.1077 33.672 42.9153 33.7192 42.8384C33.8256 42.6625 33.4888 43.0802 33.731 42.8494C33.6601 42.9153 33.3175 43.0307 33.5538 42.9868C33.1284 43.0747 33.7074 43.0637 33.2939 42.9868C33.5952 43.0362 33.2407 42.9483 33.2407 42.9483C33.3884 42.9263 33.4888 43.2396 33.2939 42.9703C33.3648 43.0747 33.4593 43.0198 33.2702 42.9208C33.2939 42.9483 33.3116 42.9813 33.3352 43.0088C33.4061 43.1352 33.4002 43.1242 33.3352 42.9978C33.3589 42.9978 33.4061 43.3276 33.3588 42.9978C33.3825 43.1242 33.3588 43.2506 33.3588 43.3715C33.3588 43.1187 33.3588 43.3935 33.3293 43.498C33.2998 43.6024 33.2584 43.7013 33.223 43.7948C33.1521 44.0147 33.3766 43.5364 33.1993 43.8333C33.1048 43.9982 33.0103 44.1521 32.898 44.317C33.0635 44.0861 32.9689 44.24 32.9099 44.2895C32.8449 44.35 32.5672 44.5204 32.8567 44.3555C32.7858 44.3939 32.7208 44.4324 32.6499 44.4709C32.8271 44.4049 32.839 44.4049 32.6795 44.4489C32.5022 44.4874 32.5258 44.4874 32.7326 44.4489C32.709 44.4709 32.4963 44.4489 32.4963 44.4489C32.5495 44.4489 32.6086 44.4599 32.6617 44.4709C32.4963 44.4214 32.5081 44.4324 32.6913 44.4984C32.6499 44.4599 32.4963 44.317 32.7149 44.5259C32.4668 44.295 32.7799 44.6908 32.6913 44.5149C32.6499 44.4269 32.5849 44.35 32.5436 44.273C32.6913 44.5313 32.5731 44.3115 32.5436 44.2345C32.4786 44.0311 32.4372 43.8223 32.39 43.6189C32.3073 43.2341 32.39 43.8882 32.3663 43.4925C32.3663 43.4155 32.3545 43.3276 32.3545 43.2506V42.8823C32.3545 42.8164 32.4195 42.6515 32.3545 42.8823C32.3841 42.7669 32.4195 42.6515 32.449 42.536C32.4727 42.4701 32.5613 42.3437 32.449 42.5141C32.4786 42.4646 32.6972 42.1788 32.4727 42.4261C32.5436 42.3492 32.6204 42.2832 32.6913 42.2117C32.4727 42.4041 32.6499 42.2612 32.7149 42.2117C32.7799 42.1513 33.0162 42.1073 32.7149 42.1897C32.7799 42.1678 32.8508 42.1513 32.9099 42.1293C32.9394 42.1293 32.9748 42.1183 33.0162 42.1073C32.8212 42.1293 32.7976 42.1348 32.9512 42.1293H33.0576C33.0044 42.1293 32.9512 42.1293 32.8921 42.1183C32.9217 42.1183 32.9571 42.1403 32.9867 42.1458C32.8212 42.0798 32.7976 42.0798 32.9335 42.1458C32.9099 42.1238 32.8803 42.1183 32.8626 42.0963C32.8921 42.1238 32.9276 42.1568 32.9571 42.1842C32.8508 41.9919 33.0812 42.3766 33.1048 42.4261C33.1343 42.4866 33.1698 42.5525 33.2112 42.6185C33.0635 42.3382 33.2112 42.646 33.2348 42.6954C33.288 42.8494 33.3175 43.0033 33.3588 43.1462C33.4238 43.3386 33.347 42.8274 33.3588 43.1682C33.3588 43.2561 33.3707 43.3441 33.3825 43.4265C33.3825 43.6189 33.3825 43.8113 33.3529 44.0037C33.3943 43.6574 33.2998 44.1686 33.2702 44.262C33.2407 44.3664 33.1993 44.4654 33.1639 44.5588C33.1403 44.6358 33.0398 44.7732 33.1875 44.5313C33.093 44.6853 33.0221 44.8392 32.9158 44.9931C32.8508 45.081 32.7917 45.169 32.7267 45.2514C32.8626 45.059 32.7681 45.2019 32.6735 45.3009C32.6086 45.3668 32.5377 45.4273 32.4668 45.4933C32.4018 45.5537 32.1891 45.6582 32.4254 45.5318C32.3545 45.5702 32.2895 45.6197 32.2068 45.6472C32.2482 45.6252 32.2895 45.6087 32.3309 45.5867C32.1655 45.6252 32.1832 45.6252 32.3841 45.5867H32.1655C32.4668 45.7241 32.2186 45.5647 32.1123 45.5372C32.3604 45.5977 32.2186 45.5867 32.1418 45.5372C32.0709 45.4988 32.006 45.4603 31.9469 45.4218C32.0296 45.4878 32.0296 45.4878 31.9469 45.4218C31.8819 45.3723 31.8346 45.3229 31.7696 45.2679C31.7696 45.2679 31.5215 44.9986 31.6456 45.1415C31.7696 45.2954 31.5511 45.0041 31.5511 45.0041C31.4979 44.9271 31.4565 44.8502 31.4152 44.7732C31.3856 44.7072 31.2793 44.4929 31.3915 44.7512C31.362 44.6743 31.3266 44.5863 31.297 44.5094C31.232 44.328 31.1907 44.1411 31.1493 43.9597C31.0784 43.6299 31.1493 44.218 31.1493 43.8827C31.1493 43.8168 31.1493 43.7453 31.1375 43.6684C31.1375 43.4925 31.1375 43.3221 31.1611 43.1462C31.1848 42.8109 31.0902 43.388 31.173 43.0582C31.1966 42.9923 31.2025 42.9208 31.2261 42.8548C31.2793 42.6515 31.3384 42.4481 31.4329 42.2557C31.3384 42.4756 31.4329 42.2557 31.4624 42.2062C31.5038 42.1293 31.5451 42.0523 31.5983 41.9754C31.6397 41.9149 31.681 41.8599 31.7106 41.7995C31.876 41.5301 31.557 41.9369 31.7815 41.7005C31.9173 41.5631 32.0532 41.4422 32.195 41.3268C32.3014 41.2388 32.4727 41.1344 32.6913 40.997C32.8567 40.898 33.0221 40.8046 33.1993 40.7056C33.2407 40.6836 33.4888 40.5682 33.3057 40.6452C33.2939 40.6452 33.6779 40.5407 33.5006 40.5792C33.3352 40.6177 33.6779 40.5792 33.6779 40.5792C33.4416 40.5792 33.6542 40.5792 33.7429 40.6012C33.8078 40.6122 34.0323 40.7001 33.8256 40.6122C33.9319 40.6617 34.0323 40.7166 34.1387 40.7771C33.9437 40.6617 34.245 40.854 34.2509 40.876C34.3159 40.9255 34.3632 40.9805 34.4163 41.0409C34.2627 40.876 34.4872 41.1454 34.4991 41.1674C34.5404 41.2333 34.5936 41.3103 34.6231 41.3872C34.5286 41.2113 34.694 41.5796 34.694 41.5686C34.7236 41.6456 34.7472 41.7335 34.7649 41.8105C34.7945 41.9369 34.8299 42.0633 34.8476 42.1788C34.889 42.4096 34.8476 42.1183 34.8713 42.3711C34.9008 42.8713 34.9362 43.3825 34.9008 43.8827C34.889 44.1356 34.8712 44.295 34.8358 44.4544C34.8063 44.5918 34.7708 44.7237 34.7295 44.8502C34.7295 44.8502 34.5936 45.2239 34.6881 45.0151C34.6054 45.2074 34.4813 45.4218 34.3336 45.5867C34.4577 45.4493 34.3218 45.5867 34.3041 45.6087C34.2509 45.6582 34.1918 45.7131 34.1387 45.7626C34.2332 45.7021 34.2214 45.7021 34.1091 45.7846C34.0382 45.8231 33.9733 45.8616 33.9142 45.889C34.0501 45.8286 33.6956 45.9495 33.6424 45.955C33.4475 45.9825 33.8492 45.977 33.4888 45.955C33.4888 45.955 33.1344 45.933 33.2584 45.955C32.4609 45.8506 31.7224 45.3668 31.3384 44.7402C31.1316 44.4049 30.9839 43.9872 30.9012 43.6024C30.8067 43.1901 31.0253 42.7834 31.2734 42.4426C31.5451 42.0688 30.9426 41.6621 30.6117 41.9589L30.6353 42.0248L30.659 42.0578Z" fill="#005871"/>
<path d="M59.8873 39.8375C59.8333 39.7834 59.7703 39.7249 59.6983 39.6798C59.7208 39.6978 59.5228 39.5447 59.4913 39.5222C59.3114 39.4051 59.0594 39.333 58.8434 39.333C58.3484 39.333 57.903 39.5943 57.669 40.0357C57.426 40.4951 57.4305 41.0626 57.7725 41.45C57.822 41.6166 57.8985 41.7653 58.0245 41.9094C58.3709 42.3103 58.9334 42.3418 59.3923 42.1076C59.7793 41.9094 60.0403 41.4905 60.1663 41.0896C60.3103 40.6572 60.2158 40.1573 59.8918 39.824V39.842L59.8873 39.8375Z" fill="white"/>
<path d="M34.9616 41.2209C34.7502 40.7615 34.3047 40.3516 33.7782 40.3336C33.1843 40.3156 32.7298 40.7344 32.5858 41.2975C32.4419 41.874 32.4419 42.5541 32.8693 43.0181C33.0988 43.2613 33.4138 43.4144 33.7198 43.4279C33.8772 43.4685 34.0437 43.4685 34.2102 43.4279C35.2361 43.2072 35.3306 42.0136 34.9616 41.2164V41.2209Z" fill="white"/>
<path d="M56.1695 22.8066C56.0975 22.3066 56.147 21.2886 55.4675 21.1535C54.8106 21.0274 54.3561 21.5499 54.0006 22.2525C54.0006 21.9823 54.0096 21.7165 54.0231 21.4373C54.0546 20.9013 54.2436 20.023 53.6497 19.6852C52.4033 18.9735 51.4089 22.0814 51.2109 22.8561C51.1254 23.1939 51.6293 23.329 51.7328 23.0002C51.9533 22.2976 52.2458 21.5049 52.7587 20.9553C53.5012 20.1491 52.8847 21.5499 52.8127 21.9823C52.6148 23.1669 52.6013 24.41 52.8217 25.5946C52.9387 26.2342 53.8387 26.1306 54.0141 25.5946C54.2121 24.9776 54.3606 24.3605 54.5181 23.7299C54.5901 23.4371 54.6666 23.1669 54.8016 22.9011C54.8646 22.712 54.9681 22.5363 55.1075 22.3967C55.2965 22.0814 55.346 22.0904 55.2515 22.4192C55.463 22.9507 55.364 23.874 55.4405 24.4506C55.535 25.1622 55.724 25.8514 55.868 26.554C55.922 26.8468 56.3809 26.7747 56.3809 26.482C56.3674 25.2433 56.3584 24.0407 56.174 22.8066L56.165 22.8156L56.1695 22.8066Z" fill="white"/>
<path d="M43.4759 23.9098C43.098 23.0225 42.333 22.4865 41.5411 21.9911C41.2036 21.7794 40.8482 22.0721 40.8167 22.41C40.7132 23.4054 40.6592 24.3918 40.6097 25.3827C40.3262 25.0674 40.0022 24.7746 39.6378 24.5134C39.0753 24.1125 38.0899 23.4549 37.3565 23.4865C35.6196 23.572 37.5364 26.734 37.9009 27.3105C38.1934 27.7789 38.9178 27.36 38.6433 26.8736C38.3104 26.3061 38.1124 25.671 37.8154 25.0944C37.7974 24.8017 37.6714 24.5945 37.4195 24.4549C37.7119 24.5494 37.9954 24.662 38.2654 24.8107C39.2373 25.3151 39.9842 26.0809 40.6187 26.9682C40.8932 27.3465 41.4376 27.2069 41.4781 26.7295C41.5816 25.6079 41.6851 24.4909 41.7391 23.3693C42.1395 23.7252 42.513 24.1035 42.945 24.4368C43.2914 24.6981 43.6019 24.2071 43.4759 23.9053V23.9098Z" fill="white"/>
<path d="M36.9333 60.2229C37.0773 60.8805 37.3022 61.8984 37.7027 62.4434C38.0672 62.9344 38.4901 63.3488 39.0481 63.592C40.137 64.0829 41.4284 64.2451 42.5038 63.7631C45.0371 62.6236 45.9145 59.6238 46.6209 57.1735C46.477 57.1555 46.225 56.7456 46.0855 56.7321C46.3285 58.9932 47.7053 61.4705 49.6087 62.6821C50.6526 63.3443 51.9125 63.7812 53.1679 63.7677C54.4053 63.7541 55.5752 62.6056 56.4031 61.7047C56.8756 61.1823 57.2625 60.5922 57.573 59.9661C57.897 59.3265 58.1129 58.6464 58.1939 57.9257C58.2029 57.8131 58.0455 57.7501 57.9735 57.8402C57.5145 58.3761 57.2805 59.0563 56.9295 59.6598C56.5561 60.3084 56.1331 60.9165 55.5797 61.421C55.0892 61.8624 54.4998 62.2272 53.8608 62.4029C53.0464 62.6236 52.205 62.4659 51.413 62.1957C49.0282 61.3804 46.8639 59.3265 46.5174 56.7366C46.486 56.5069 46.1485 56.4123 46.0855 56.6826C45.541 58.768 44.4611 61.0516 42.4543 62.0876C41.5769 62.538 40.5195 62.6641 39.5791 62.3398C38.5306 61.975 37.8287 61.0291 37.2977 60.0877C37.1808 59.8805 36.8793 60.0247 36.9288 60.2454L36.9378 60.2274L36.9333 60.2229Z" fill="#005871"/>
<path d="M51.7415 56.3447C55.2872 54.3674 59.0129 52.8225 62.8106 51.3901C66.5857 49.9668 70.4509 48.7507 74.3611 47.7462C76.5794 47.1787 78.8157 46.6472 81.0655 46.1968C81.16 46.1788 81.1195 46.0392 81.025 46.0527C72.8942 47.2778 64.9344 49.602 57.438 52.9756C55.4492 53.8764 53.3794 54.8493 51.737 56.3177C51.728 56.3267 51.737 56.3402 51.7505 56.3312L51.7415 56.3402V56.3447Z" fill="#005871"/>
<path d="M54.2839 56.7997C57.3301 56.1105 60.3944 55.4664 63.4631 54.8629C64.9885 54.5701 66.4959 54.1602 68.0167 53.8765C68.7907 53.7278 69.5646 53.5837 70.3475 53.4441C71.1215 53.2999 71.9089 53.1108 72.6783 52.9216C72.7593 52.8991 72.7413 52.7729 72.6558 52.7729C71.1484 52.8675 69.6141 53.2008 68.1247 53.4441C66.5633 53.6963 65.0155 53.9891 63.4676 54.2954C60.3719 54.9124 57.2941 55.6061 54.2299 56.3808C54.1039 56.4123 54.1579 56.6015 54.2839 56.57V56.7997Z" fill="#005871"/>
<path d="M56.952 58.6424C63.7239 59.2505 70.4373 60.2234 77.0833 61.6512C78.9551 62.0521 80.8089 62.498 82.6718 62.9304C82.7753 62.9529 82.8158 62.8043 82.7123 62.7727C76.2463 60.7504 69.4744 59.5793 62.7475 58.8676C60.8217 58.6604 58.8868 58.5343 56.952 58.4487C56.835 58.4487 56.835 58.6244 56.952 58.6379V58.6424Z" fill="#005871"/>
<path d="M17.108 55.0298C23.4075 54.9353 29.7069 55.2055 35.9749 55.773C37.7612 55.9307 39.5341 56.1063 41.3204 56.2775C41.4059 56.2865 41.4329 56.1334 41.3429 56.1199C35.1604 54.9172 28.7755 54.5299 22.4895 54.656C20.6897 54.6965 18.8989 54.8046 17.1035 54.9398C17.0495 54.9398 17.0405 55.0344 17.1035 55.0344V55.0253L17.108 55.0298Z" fill="#005871"/>
<path d="M15.8527 63.7544C21.8057 61.6059 27.8621 59.6781 34.0896 58.5251C34.94 58.3674 35.804 58.2323 36.6544 58.0972C37.5633 57.953 38.5037 57.917 39.3946 57.7188C39.5836 57.6783 39.5296 57.4125 39.3541 57.4035C38.5577 57.354 37.7208 57.4846 36.9289 57.5522C36.1864 57.6242 35.444 57.7188 34.7015 57.8359C33.1222 58.0747 31.5608 58.39 30.013 58.7593C26.9037 59.5115 23.8485 60.4574 20.8472 61.5789C19.1599 62.2095 17.477 62.8761 15.8032 63.5608C15.6907 63.6103 15.7312 63.7995 15.8572 63.7499H15.8482L15.8527 63.7544Z" fill="#005871"/>
<path d="M23.1961 65.5514C24.807 64.7046 26.3954 63.8353 28.0332 63.0561C28.8522 62.6687 29.6756 62.2904 30.5035 61.9165C31.3224 61.5472 32.1774 61.2274 32.9828 60.8265C33.0683 60.786 33.0053 60.6508 32.9198 60.6779C32.0604 60.8896 31.1919 61.2544 30.3685 61.5877C29.5406 61.9255 28.7262 62.2994 27.9297 62.7002C26.2784 63.529 24.6765 64.4389 23.1871 65.5289C23.1691 65.5469 23.1871 65.5694 23.2051 65.5604L23.1961 65.5514Z" fill="#005871"/>
<path d="M52.2636 52.4354C52.0836 49.7374 47.7909 49.9491 46.2836 50.1923C44.7627 50.4355 43.1294 50.7328 41.667 51.2958C41.0415 51.5391 39.7501 52.012 39.6377 52.8993C39.5567 53.4984 39.9706 53.8497 40.4116 54.0659C40.4656 54.1019 40.5241 54.129 40.5871 54.147C40.7131 54.201 40.8301 54.2371 40.9425 54.2821C42.6479 54.8451 44.6817 54.7055 45.6761 56.7144C45.7256 56.8044 45.7886 56.8495 45.8561 56.8675V56.8855C46.0136 57.2639 46.4816 57.1918 46.6525 56.8855C47.656 55.1469 52.4255 55.1919 52.2456 52.4444L52.2591 52.4354H52.2636Z" fill="#005871"/>
<path d="M14.8269 71.2672C13.1935 70.1051 13.4725 68.5377 10.1473 67.0918C9.19335 66.6774 8.05945 67.835 6.54758 64.8172C5.03571 61.7994 5.37318 61.1283 5.27869 60.1509C5.1842 59.1735 1.90848 62.8624 1.86348 62.0561C1.81849 61.1823 4.04129 55.0837 4.04579 54.6378C4.05479 53.8045 1.29203 57.1691 1.01305 55.4575C0.734079 53.7459 5.01771 46.6879 5.1302 45.6294C5.19769 44.9808 4.08179 45.3907 2.41693 45.4718C0.752078 45.5528 6.39009 38.9722 6.67806 38.1795C6.74556 37.9948 6.82655 37.8101 6.89855 37.6525C6.97504 37.4813 7.04253 37.3417 7.10103 37.1976L6.77706 35.0806V35.0716C6.57457 34.3825 6.3316 33.5807 6.13361 32.8465C5.93563 32.1304 5.75564 31.4142 5.69715 30.9097C4.97721 25.0363 4.98621 19.0728 5.55316 13.1993C5.81864 10.4292 6.11112 7.47 6.78156 4.6639L6.83105 4.46572C7.10103 3.49281 7.64998 2.65954 8.51841 2.21813C9.44983 1.74519 10.4217 1.81726 11.5331 2.32623C12.6445 2.8352 15.7583 5.74941 18.3906 8.1141C19.7269 9.31672 21.0723 10.5373 22.2152 11.5778C22.2152 11.5778 29.3246 18.2305 29.8106 18.5683C30.3145 18.9196 30.679 19.0863 30.922 19.1313C31.4889 19.2349 34.3147 17.136 38.0134 16.2126C41.712 15.2893 44.5243 14.5416 48.4929 14.7037C52.4616 14.8659 57.3977 15.4109 57.7711 15.1541C58.1266 14.9109 60.6329 11.0778 63.9761 7.92042C67.7108 4.39815 72.3229 1.51998 72.8403 1.30829C73.3623 1.09659 73.9787 0.943449 74.6267 1.02002C75.3061 1.10109 75.9316 1.42089 76.4535 1.99743C76.926 2.51541 77.268 3.11897 77.5379 3.68199C77.7854 4.19547 78.5683 5.51519 79.6888 8.65911C80.8092 11.803 80.7282 12.5597 81.4931 18.3071C82.258 24.0544 81.1466 30.4413 82.258 34.2564C82.807 36.1481 85.6192 38.3461 86.2672 39.5488C86.9151 40.7514 84.8678 40.9991 85.4303 42.4585C86.5417 45.3546 88.3145 48.9129 87.95 49.0931C87.4191 49.3589 84.5708 46.3366 83.9589 47.2374C83.3469 48.1382 90.0154 56.8583 87.1041 54.7774C84.1929 52.6965 83.194 55.6737 83.0725 56.5025C82.3705 61.3895 81.6866 62.9795 80.3547 64.5875C78.7978 66.4702 77.007 66.745 76.3995 67.245C73.5918 69.5286 64.6511 70.2402 65.506 71.6816" stroke="#005871" stroke-width="2"/>
<path d="M23.628 78.4739C23.214 78.4919 22.8046 78.5054 22.3906 78.5234C21.8372 78.5414 22.0441 77.7082 21.4907 77.7172C21.3197 77.7172 20.3928 78.591 20.2128 78.6C19.0969 78.6405 17.954 80.3836 16.8291 80.4062C15.7987 80.4242 13.0764 78.6 12.046 78.591C11.3891 78.591 11.0876 78.609 10.8266 78.6315C10.4981 78.6495 10.2282 78.6495 9.44073 78.5549H9.26074C8.81978 78.5459 8.36982 78.5234 7.92886 78.4964C7.79837 78.4964 7.65888 78.4784 7.52389 78.4649C7.21342 78.4333 6.92545 78.4063 6.64197 78.3478C6.00303 78.2126 5.45857 77.9154 5.1391 77.1992C4.94112 76.7668 4.82863 76.2578 4.79263 75.7263C4.64414 73.9787 5.21559 71.8797 5.97603 70.6141C6.2865 70.1051 6.69597 69.6907 7.08293 69.2403C8.24383 67.9161 8.75229 67.1774 10.3272 66.4973C14.7053 64.6235 20.7483 65.3036 23.9745 68.9746C25.0904 70.2402 25.9633 71.7401 26.4898 73.3616C26.6967 73.9787 26.8452 74.6093 26.9397 75.2669C27.3357 77.9244 25.8598 78.3883 23.619 78.4649L23.628 78.4739Z" fill="white"/>
<path d="M23.619 79.0863C23.205 79.1043 22.7956 79.1133 22.3816 79.1314C22.0441 78.9737 21.7247 78.771 21.4232 78.5278C21.2927 78.5909 21.1397 78.6404 20.9822 78.6764C20.8967 78.8611 20.8112 79.0278 20.7213 79.1854C20.5503 79.1854 20.3838 79.1944 20.2038 79.2034C19.0879 79.2395 17.945 80.888 16.8201 80.9105C15.7897 80.9285 13.0674 79.2034 12.037 79.1944C11.9605 79.1314 11.8795 79.0548 11.812 78.9917C11.4836 79.0953 11.1551 79.1854 10.8176 79.235C10.2822 79.316 9.7557 79.307 9.25174 79.1494C9.16625 79.1224 9.08076 79.0953 8.99977 79.0548C8.66229 78.9062 8.29783 79.0007 7.92886 79.0908C7.57339 79.1764 7.20892 79.2575 6.86695 79.1359C6.78146 79.1088 6.70946 79.0413 6.64197 78.9602C6.2865 78.5413 6.04352 77.609 5.68355 77.3477C5.35508 77.1045 5.05361 76.8117 4.79263 76.4784C4.64414 74.8299 5.21559 72.8435 5.97603 71.6499C6.2865 71.168 6.64197 70.7131 7.02444 70.2852C8.6578 70.5284 6.50698 71.6679 6.74096 74.6902C6.56098 75.9694 7.97836 76.5234 8.20334 76.6811C8.88728 77.136 10.7816 75.5145 11.3621 75.1317C12.055 74.6857 13.1169 74.8524 13.6704 75.4289C15.3982 77.2081 17.936 77.0955 20.2263 77.636C20.2443 77.4063 20.2353 77.172 20.1588 76.9784C19.7628 75.9289 21.1442 74.9875 22.0441 75.5505C22.8811 76.0685 23.8935 76.4198 24.8474 76.0235C25.6708 75.6812 25.9633 74.911 26.4808 74.2714C26.6877 74.8569 26.8362 75.4469 26.9307 76.0685C27.3267 78.5819 25.8508 79.0143 23.61 79.0908V79.0818L23.619 79.0863Z" fill="white"/>
<path d="M21.2885 75.1226C20.924 75.7037 21.1715 76.8702 21.3695 77.4963C21.6439 78.3746 22.1794 79.0638 22.9488 79.3385C24.5732 79.9106 26.373 78.6899 27.1335 76.9964C27.9974 75.0776 27.5429 72.9381 26.625 71.1815C25.6711 69.3392 24.2987 67.4925 22.7193 66.3935C20.9285 65.1414 18.7327 64.6684 16.6719 64.8576C16.4559 64.8801 16.3974 65.2404 16.6179 65.3125C18.0623 65.8305 19.5876 66.0016 21.023 66.5962C22.5304 67.2223 23.7003 68.4069 24.7307 69.8167C25.7026 71.1319 26.6295 72.9201 26.436 74.7533C26.283 76.2171 25.2751 77.3792 24.0827 77.69C23.3493 77.8792 22.8003 77.6495 22.3954 76.8973C22.1029 76.3342 21.9769 75.4469 21.5135 75.0641C21.4235 74.9875 21.3245 75.0641 21.2705 75.1361L21.2885 75.1271V75.1226Z" fill="#005871"/>
<path d="M9.82328 66.4971C7.09202 68.1141 4.70272 70.6139 3.97379 74.1497C3.56432 76.1225 4.14477 78.0548 5.70614 79.1538C7.11451 80.1447 9.17534 80.5681 10.7862 80.0321C11.6411 79.7484 12.3746 79.1763 12.8605 78.3431C13.081 77.9737 13.27 77.5098 13.315 77.0639C13.3645 76.5909 13.2385 76.136 13.2295 75.6586C13.2295 75.3613 12.8965 75.2892 12.7525 75.5099C11.9426 76.7981 11.4881 78.6358 12.5725 79.9015C13.6075 81.1176 15.3983 81.0321 16.7842 80.969C18.287 80.9059 19.8574 80.6852 20.9418 79.4151C21.3423 78.9421 21.6843 78.3611 21.8912 77.7485C22.1207 77.0639 22.0712 76.5639 21.8057 75.9108C21.7787 75.8387 21.6708 75.8793 21.6708 75.9513C21.6438 77.1359 21.0903 78.2935 20.1589 78.8971C19.142 79.5502 17.9226 79.6898 16.7752 79.5502C15.8798 79.4466 14.6559 79.3385 13.9044 78.7394C13.0765 78.0863 13.2475 76.627 13.2205 75.6586C13.0585 75.7126 12.9055 75.7532 12.7435 75.8072C13.198 76.6855 12.1361 77.9512 11.5061 78.3115C10.7277 78.7529 9.74679 78.753 8.90086 78.5863C7.46548 78.289 5.58015 77.5188 5.26068 75.7126C4.9457 73.929 5.78263 71.8255 6.70505 70.4112C7.77596 68.7717 9.32382 67.7583 10.5837 66.7493C10.6197 66.7178 9.86378 66.4746 9.82778 66.4971H9.82328Z" fill="#005871"/>
<path d="M9.31494 67.2539C10.5793 65.9883 14.116 64.7271 17.9047 65.2316" stroke="#005871" stroke-width="1.5" stroke-linecap="round"/>
<path d="M79.3649 78.4739C78.951 78.4919 78.5415 78.5054 78.1275 78.5234C77.5741 78.5414 77.7811 77.7082 77.2276 77.7172C77.0566 77.7172 76.1297 78.591 75.9497 78.6C74.8338 78.6405 68.8133 78.6 67.7784 78.591C67.1215 78.591 66.82 78.609 66.559 78.6315C66.2306 78.6495 65.9606 78.6495 65.1732 78.5549H64.9932C64.5522 78.5459 64.1022 78.5234 63.6613 78.4964C63.5308 78.4964 63.3913 78.4784 63.2563 78.4649C62.9458 78.4333 62.6579 78.4063 62.3744 78.3478C62.1089 78.2892 61.8614 78.2081 61.641 78.0775C61.326 77.8928 61.0605 77.6181 60.8715 77.1992C60.6735 76.7668 60.561 76.2578 60.5251 75.7263C60.3766 73.9787 60.948 71.8797 61.7084 70.6141C62.0189 70.1051 62.4284 69.6907 62.8154 69.2403C63.9763 67.9161 64.4847 67.1774 66.0596 66.4973C70.4377 64.6235 76.4807 65.3036 79.7069 68.9746C80.8228 70.2402 81.9477 71.1185 82.2222 73.3616C82.4967 75.6047 81.5922 78.3838 79.3514 78.4649L79.3604 78.4739H79.3649Z" fill="white"/>
<path d="M78.5951 79.0642C78.2576 78.9065 77.2452 77.9561 77.0877 77.9922C77.0022 78.1769 75.8773 79.1993 75.7018 79.2083C74.5859 79.2443 73.569 80.3569 72.4441 80.3749C71.4137 80.3929 68.5655 79.2083 67.5351 79.1993C67.4586 79.1362 67.3776 79.0597 67.3101 78.9966C66.9816 79.1002 66.6531 79.1903 66.3157 79.2398C65.7802 79.3209 65.2582 79.3119 64.7498 79.1543C64.6643 79.1272 64.5788 79.1002 64.4978 79.0597C64.1603 78.911 63.7959 79.0056 63.4269 79.0957C63.0714 79.1813 62.707 79.2624 62.365 79.1407C62.2795 79.1137 62.2075 79.0462 62.14 78.9651C61.7845 78.5462 61.5416 77.6138 61.1816 77.3526C60.8531 77.1094 60.5517 76.8166 60.2907 76.4833C60.1422 74.8348 60.7136 72.8484 61.4741 71.6548C61.7846 71.1729 62.14 70.7179 62.5225 70.29C64.1558 70.5333 62.005 71.6728 62.239 74.6951C62.059 75.9743 63.4764 76.5283 63.7014 76.686C64.3853 77.1409 66.2797 75.5194 66.8601 75.1365C67.5531 74.6906 68.615 74.8573 69.1684 75.4338C70.8918 77.213 73.434 77.1004 75.7243 77.6409C75.7423 77.4111 75.7333 77.1769 75.6568 76.9832C75.2654 75.9338 76.6423 74.9924 77.5422 75.5554C78.3791 76.0734 79.3915 76.4247 80.3454 76.0284C81.1689 75.686 81.4613 74.9158 81.9788 74.2762C82.1858 74.8618 82.3343 75.4518 82.4288 76.0734C82.8247 78.5867 79.0046 79.0417 78.5906 79.0597L78.5951 79.0642Z" fill="white"/>
<path d="M76.7817 75.1226C76.4173 75.7037 76.6648 76.8702 76.8627 77.4963C77.1417 78.3746 77.6727 79.0638 78.4421 79.3385C80.0665 79.9106 81.8663 78.6899 82.6222 76.9964C83.4862 75.0776 83.0317 72.9381 82.1138 71.1815C81.1599 69.3392 79.7875 67.4925 78.2081 66.3935C76.4173 65.1414 74.2215 64.6684 72.1606 64.8576C71.9447 64.8801 71.8862 65.2404 72.1066 65.3125C73.551 65.8305 75.0764 66.0016 76.5118 66.5962C78.0191 67.2223 79.189 68.4069 80.2239 69.8167C81.1959 71.1319 82.1228 72.9201 81.9293 74.7533C81.7763 76.2171 80.7684 77.3792 79.576 77.69C78.8471 77.8792 78.2936 77.6495 77.8886 76.8973C77.5962 76.3342 77.4702 75.4469 77.0067 75.0641C76.9167 74.9875 76.8177 75.0641 76.7637 75.1361L76.7817 75.1271V75.1226Z" fill="#005871"/>
<path d="M65.3169 66.4971C62.5902 68.1141 60.1964 70.6139 59.4674 74.1497C59.058 76.1225 59.6384 78.0548 61.1998 79.1538C62.6082 80.1447 64.669 80.5681 66.2798 80.0321C67.1348 79.7484 67.8682 79.1763 68.3542 78.3431C68.5747 77.9737 68.7636 77.5098 68.8131 77.0639C68.8626 76.5909 68.7366 76.136 68.7276 75.6586C68.7276 75.3613 68.3947 75.2892 68.2507 75.5099C67.4408 76.7981 66.9863 78.6358 68.0707 79.9015C69.1056 81.1176 70.8965 81.0321 72.2823 80.969C73.7852 80.9059 75.3556 80.6852 76.44 79.4151C76.8404 78.9421 77.1824 78.3611 77.3894 77.7485C77.6189 77.0639 77.5694 76.5639 77.3039 75.9108C77.2769 75.8387 77.1689 75.8793 77.1689 75.9513C77.1419 77.1359 76.5885 78.2935 75.657 78.8971C74.6401 79.5502 73.4207 79.6898 72.2733 79.5502C71.3779 79.4466 70.154 79.3385 69.4026 78.7394C68.5747 78.0863 68.7456 76.627 68.7186 75.6586C68.5567 75.7126 68.4037 75.7532 68.2417 75.8072C68.6961 76.6855 67.6342 77.9512 67.0043 78.3115C66.2259 78.7529 65.2449 78.753 64.399 78.5863C62.9636 78.289 61.0783 77.5188 60.7543 75.7126C60.4394 73.929 61.2763 71.8255 62.1987 70.4112C63.2651 68.7717 64.813 67.7583 66.0774 66.7493C66.1179 66.7178 65.3574 66.4746 65.3214 66.4971H65.3169Z" fill="#005871"/>
<path d="M64.813 67.2539C66.0774 65.9883 69.6141 64.7271 73.4027 65.2316" stroke="#005871" stroke-width="1.5" stroke-linecap="round"/>
</svg>
