<svg width="133" height="96" viewBox="0 0 133 96" fill="none" xmlns="http://www.w3.org/2000/svg">
<path d="M62.3652 4.40148C64.2409 8.28128 62.6179 12.9472 58.7429 14.8225C54.8679 16.6978 50.2066 15.0751 48.3309 11.201C46.4552 7.32116 48.0782 2.65529 51.9532 0.779959C55.8282 -1.09537 60.4894 0.527295 62.3652 4.40148Z" fill="#005871"/>
<path d="M89.3609 29.2132C88.8499 27.9499 88.1928 26.7483 87.4403 25.6085C86.4912 23.6826 85.5308 22.9808 83.5428 21.5883C83.0654 21.2514 82.5769 20.937 82.0939 20.6114C81.9479 20.5103 81.7513 20.6226 81.7682 20.8023L81.9703 23.4356C81.2627 23.7051 80.4203 24.0251 79.8812 24.5698C79.2522 25.2098 79.2073 26.198 78.3143 26.6809C78.1178 26.7876 77.8988 26.855 77.6854 26.9223C77.4214 27.0066 77.2585 27.2648 77.2866 27.54L77.3372 28.0341C77.6236 28.8987 78.2076 29.5388 79.0276 29.915C79.9317 30.3249 80.572 30.2238 81.2571 31.0997C81.2571 31.0997 83.8292 36.1362 81.6558 40.4034C81.2066 41.1558 80.6843 41.8632 80.0834 42.5033C77.281 45.6307 72.7209 47.1973 68.7279 46.2091C65.319 45.4398 62.3426 42.8346 61.4103 39.4433C60.8656 37.5286 61.1688 35.6028 62.1067 34.0082C63.5107 31.6107 63.2748 28.6012 61.4159 26.5349L61.3429 26.4563C61.3429 26.4563 58.9112 23.7612 54.3567 18.7136C51.661 15.7265 46.7976 16.2711 44.8826 19.8084C44.1076 21.2402 43.4505 22.7394 42.9338 24.2834C38.896 36.0295 43.3045 49.4656 53.8007 56.0574C60.0513 60.0663 68.0821 61.1275 75.1076 58.7356C87.3055 54.693 94.2131 41.2288 89.3553 29.2132" fill="#005871"/>
<g opacity="0.76">
<mask id="mask0_763_6511" style="mask-type:luminance" maskUnits="userSpaceOnUse" x="51" y="15" width="40" height="44">
<path d="M90.9445 15.4624H51.8237V58.5501H90.9445V15.4624Z" fill="white"/>
</mask>
<g mask="url(#mask0_763_6511)">
<path d="M76.7194 39.9819C76.652 42.8174 73.9788 46.1638 71.4573 47.4327C68.5201 48.988 64.6507 48.6455 61.8428 46.7477C58.5967 44.6534 56.6817 40.549 56.9793 36.6075C57.0243 35.9 57.1366 35.1982 57.3051 34.5076C57.5241 33.6204 57.1366 32.694 56.3279 32.2616L56.2605 32.2223C55.2777 31.7002 54.0647 32.0932 53.5705 33.087C52.7786 34.6704 52.2395 36.3829 51.9924 38.1459C50.5266 48.5052 58.563 57.6965 68.8964 58.4826C74.8661 58.9879 80.9482 56.5904 85.0591 52.2334C91.9948 45.024 92.8316 33.6429 87.3785 25.232C86.772 24.2831 86.0924 23.3791 85.3455 22.5256C85.4578 21.1388 85.5645 19.7463 85.514 18.3539C85.4915 17.7082 85.441 15.8048 84.7895 15.5016C84.256 15.2489 83.1834 16.2876 82.8352 16.6414C81.6951 17.7868 80.746 19.1792 79.7969 20.4819L79.8138 18.9097C79.7239 16.821 78.6344 16.2989 77.618 18.4213C77.1968 19.2972 76.9777 20.392 76.7587 21.3353L74.1642 21.4476L73.1757 23.059L66.7455 22.8176C66.1839 22.7952 65.7346 23.278 65.7851 23.8395C65.9536 25.7204 66.5096 27.7867 67.7844 29.1174C68.6998 30.0719 71.0192 29.6283 72.2491 30.0887C72.2491 30.0887 77.1575 34.7209 76.7026 39.9988" fill="#FAB500"/>
</g>
</g>
<path d="M17.5213 83.8562C17.5213 88.7885 14.0609 92.7998 8.76067 92.7998C3.46048 92.7998 0 88.7857 0 83.8562C0 78.9267 3.42636 74.9438 8.76067 74.9438C14.095 74.9438 17.5213 78.9551 17.5213 83.8562ZM13.4694 83.8562C13.4694 81.0275 11.7577 78.7931 8.76067 78.7931C5.76367 78.7931 4.05192 81.0304 4.05192 83.8562C4.05192 86.682 5.76651 88.9534 8.76067 88.9534C11.7548 88.9534 13.4694 86.7161 13.4694 83.8562Z" fill="#005871"/>
<path d="M32.842 86.2042V87.1594C32.842 90.9461 29.9445 92.7911 27.0101 92.7911C24.0757 92.7911 21.1128 90.9148 21.1128 87.1594V72.0412C21.1128 70.6908 21.9687 70 23.089 70C24.2093 70 25.0311 70.6908 25.0311 72.0412V74.938C25.0311 75.1029 25.1619 75.2337 25.3268 75.2337H29.2792C31.7843 75.2337 31.7501 78.955 29.2792 78.955H25.3268C25.1619 78.955 25.0311 79.0857 25.0311 79.2506V86.9917C25.0311 88.4416 26.0206 89.1665 26.976 89.1665C27.9314 89.1665 28.9181 88.4416 28.9181 86.9917V86.2014C28.9181 84.851 29.7427 84.1602 30.8601 84.1602C31.9776 84.1602 32.8363 84.851 32.8363 86.2014" fill="#005871"/>
<path d="M48.0598 86.2042V87.1594C48.0598 90.9461 45.1623 92.7911 42.2279 92.7911C39.2934 92.7911 36.3306 90.9148 36.3306 87.1594V72.0412C36.3306 70.6908 37.1864 70 38.3068 70C39.4271 70 40.2517 70.6908 40.2517 72.0412V74.938C40.2517 75.1029 40.3825 75.2337 40.5474 75.2337H44.4998C47.002 75.2337 46.9708 78.955 44.4998 78.955H40.5474C40.3825 78.955 40.2517 79.0857 40.2517 79.2506V86.9917C40.2517 88.4416 41.2412 89.1665 42.1938 89.1665C43.1463 89.1665 44.1358 88.4416 44.1358 86.9917V86.2014C44.1358 84.851 44.9604 84.1602 46.0808 84.1602C47.2011 84.1602 48.0569 84.851 48.0569 86.2014" fill="#005871"/>
<path d="M60.4376 74.9693C60.1902 74.9494 59.94 74.9409 59.6869 74.9409C54.3498 74.9409 50.9263 78.9607 50.9263 83.8675C50.9263 88.7742 54.3526 92.8253 59.6869 92.8253C59.9684 92.8253 60.2471 92.8139 60.5172 92.7912H60.5286C65.3539 92.3903 68.4448 88.5439 68.4448 83.8675C68.4448 79.191 65.3113 75.3275 60.4348 74.9693H60.4376ZM60.4376 88.922C60.1959 88.9562 59.9457 88.9732 59.6869 88.9732C56.6871 88.9732 54.9753 86.7331 54.9753 83.8675C54.9753 81.0019 56.6871 78.7958 59.6869 78.7958C59.9457 78.7958 60.1959 78.8129 60.4376 78.847C62.9683 79.1881 64.3957 81.2805 64.3957 83.8675C64.3957 86.4545 62.9683 88.5809 60.4376 88.922Z" fill="#005871"/>
<path d="M117.486 74.0086V84.8399C117.486 89.3202 113.983 91.5746 110.48 91.5746C106.976 91.5746 103.448 89.3202 103.448 84.8399V74.0086C103.448 72.8943 104.235 72.3257 105.131 72.3257C106.027 72.3257 106.814 72.8943 106.814 74.0086V84.4334C106.814 86.9862 108.634 88.2627 110.48 88.2627C112.325 88.2627 114.119 86.9862 114.119 84.4334V74.0086C114.119 72.8943 114.878 72.3257 115.803 72.3257C116.727 72.3257 117.486 72.8943 117.486 74.0086Z" fill="#FAB500"/>
<path d="M82.3179 85.7635C81.2032 85.7635 79.9549 85.411 79.9549 83.9185C79.9549 83.023 80.498 82.264 81.5018 82.264C81.8288 82.264 81.9624 82.4004 82.3434 82.4004C85.5736 82.4004 85.5736 75.6686 81.5018 75.6686C79.3578 75.6686 78.0527 77.0815 78.0527 79.4154V89.8942C78.0527 91.0057 77.2935 91.5771 76.3694 91.5771C75.4452 91.5771 74.686 91.0057 74.686 89.8942V78.8724C74.686 74.719 77.7826 72.3311 81.5018 72.3311C90.2994 72.3311 90.2994 85.7692 82.315 85.7692" fill="#FAB500"/>
<path d="M102.632 89.7552C102.632 90.5967 102.089 91.3301 101.002 91.3301H93.291C91.6077 91.3301 90.2485 89.9712 90.2485 88.2883V74.0086C90.2485 72.8971 91.0362 72.3257 91.9319 72.3257C92.8275 72.3257 93.6152 72.8971 93.6152 74.0086V86.5257C93.6152 87.4212 94.3488 88.1547 95.2729 88.1547H101.002C102.089 88.1547 102.632 88.9137 102.632 89.7552Z" fill="#FAB500"/>
<path d="M132.397 86.0906C132.397 89.4309 129.843 91.5744 126.206 91.5744C123.246 91.5744 121.128 90.4344 119.851 88.2341C119.146 87.0116 119.959 85.6016 121.344 85.6016C123.434 85.6016 123.707 88.2881 126.937 88.2881C128.293 88.2881 128.947 87.5546 128.947 86.6876C128.947 82.5342 120.121 83.5377 120.121 77.4568C120.121 73.872 122.891 72.2715 125.851 72.2715C128.185 72.2715 130.631 73.2779 131.907 75.0688C132.803 76.2913 132.016 77.6757 130.821 77.6757C130.386 77.6757 129.872 77.4853 129.383 77.0247C128.433 76.1008 127.102 75.6403 125.933 75.6403C124.657 75.6403 123.488 76.2373 123.488 77.2976C123.488 80.746 132.394 79.8505 132.394 86.0934" fill="#FAB500"/>
<path d="M114.424 80.5667H111.958V83.0315C111.958 84.0066 111.27 84.4927 110.554 84.4927C109.837 84.4927 109.149 84.0066 109.149 83.0315V80.5667H106.684C104.733 80.5667 104.733 77.758 106.684 77.758H109.149V75.2933C109.149 74.3182 109.865 73.832 110.554 73.832C111.242 73.832 111.958 74.3182 111.958 75.2933V77.758H114.424C116.374 77.758 116.374 80.5667 114.424 80.5667Z" stroke="white" stroke-width="0.84" stroke-miterlimit="10"/>
<path d="M114.424 80.5667H111.958V83.0315C111.958 84.0066 111.27 84.4927 110.554 84.4927C109.837 84.4927 109.149 84.0066 109.149 83.0315V80.5667H106.684C104.733 80.5667 104.733 77.758 106.684 77.758H109.149V75.2933C109.149 74.3182 109.865 73.832 110.554 73.832C111.242 73.832 111.958 74.3182 111.958 75.2933V77.758H114.424C116.374 77.758 116.374 80.5667 114.424 80.5667Z" fill="#005871"/>
<path d="M77.9048 95H129.181" stroke="#005871" stroke-miterlimit="10" stroke-linecap="round"/>
</svg>
