<svg width="77" height="80" viewBox="0 0 77 80" fill="none" xmlns="http://www.w3.org/2000/svg">
<g clip-path="url(#clip0_305_1619)">
<path d="M9.04496 78.0268C5.64395 73.3198 7.06181 70.8718 7.06181 70.8718L5.37057 72.9741C1.3811 63.2466 3.63763 57.6453 3.63763 57.6453L1.395 60.3791C0.973348 53.3348 3.53106 50.4719 4.87015 45.3731C6.20924 40.2696 13.8082 30.2426 16.9729 22.6773C20.1376 15.1166 30.8133 15.7851 30.8133 15.7851C30.8133 15.7851 40.5669 11.4147 46.2059 17.3802C51.8449 23.3458 62.5113 30.0674 65.574 34.3732C68.6368 38.6791 72.0378 40.4587 74.1414 47.1987L71.074 45.4238C71.074 45.4238 75.1654 49.8726 74.8828 60.3745L72.5568 59.0007C72.5568 59.0007 74.8967 73.7901 71.2686 78.0176" fill="white"/>
<path d="M9.04505 78.9581C8.75314 78.9581 8.47049 78.8244 8.28515 78.5709C6.86266 76.6023 6.21396 74.9703 5.95912 73.6979C5.75988 73.8593 5.49576 73.9331 5.23629 73.8962C4.90731 73.8501 4.62929 73.6334 4.50419 73.3291C2.28936 67.9214 1.93721 63.7354 2.09475 60.997C1.84918 61.2736 1.45996 61.3842 1.10318 61.269C0.737129 61.1491 0.482285 60.8218 0.459118 60.4391C0.157938 55.3864 1.35802 52.3207 2.5164 49.3563C3.03073 48.0424 3.55895 46.6824 3.9667 45.1426C4.70806 42.3212 7.2009 38.1813 9.84202 33.8017C12.2005 29.8876 14.6424 25.8399 16.1112 22.327C17.5244 18.9524 20.5455 16.5966 24.85 15.4994C27.5328 14.8171 29.9052 14.8309 30.6419 14.8539C31.3231 14.5727 33.5379 13.7337 36.2902 13.4294C40.706 12.9407 44.3711 14.0933 46.8871 16.7533C49.505 19.524 53.2211 22.4561 56.8167 25.2913C60.8433 28.4677 64.6428 31.4643 66.334 33.8432C67.2561 35.1432 68.2384 36.2266 69.1836 37.2777C71.3197 39.6473 73.5252 42.0953 75.0358 46.9314C75.1516 47.2956 75.0265 47.6967 74.7253 47.9318C74.4334 48.1623 74.0303 48.1992 73.7013 48.024C74.818 50.5319 75.9764 54.5704 75.8142 60.4069C75.8049 60.7342 75.6196 61.0385 75.3323 61.1952C75.0404 61.3566 74.6883 61.3473 74.4056 61.1814L73.7384 60.7849C73.9145 62.2786 74.1322 64.4961 74.2064 66.898C74.3871 72.7436 73.6411 76.6899 71.9823 78.6262C71.6487 79.0181 71.0602 79.0642 70.6664 78.7322C70.2725 78.4003 70.2262 77.8148 70.5598 77.423C73.3075 74.2189 72.2649 63.1499 71.6348 59.1529C71.5792 58.7979 71.7321 58.4429 72.0333 58.2401C72.3344 58.0373 72.7236 58.028 73.0341 58.2124L73.9562 58.761C73.882 54.4137 73.0202 51.3249 72.2649 49.4347C71.3521 47.1481 70.393 46.0739 70.3837 46.0601C70.0779 45.7189 70.064 45.2072 70.3513 44.8522C70.6432 44.4972 71.1482 44.405 71.5421 44.6355L72.3669 45.1104C71.0787 42.1737 69.4755 40.3896 67.7936 38.5225C66.8113 37.4345 65.7965 36.305 64.8096 34.9219C63.2712 32.7598 59.5737 29.8415 55.6537 26.7527C52.0071 23.876 48.2354 20.8978 45.5248 18.0303C43.4073 15.7898 40.3862 14.8632 36.545 15.2781C33.575 15.5962 31.2211 16.6381 31.1933 16.6473C31.0543 16.7072 30.9014 16.7349 30.7531 16.7257C30.73 16.7257 28.1537 16.5781 25.2624 17.3204C21.5231 18.2793 19.021 20.2063 17.8349 23.0462C16.3151 26.6836 13.8361 30.7912 11.4452 34.7606C8.87361 39.025 6.44564 43.0542 5.77378 45.6175C5.34286 47.2587 4.79147 48.6694 4.25861 50.034C3.34581 52.3714 2.4747 54.6027 2.3079 57.8021L2.91025 57.0645C3.20217 56.7095 3.71186 56.6173 4.11034 56.8524C4.50882 57.0876 4.67563 57.5716 4.50419 58.0004C4.50419 58.0096 3.98523 59.3558 3.9389 61.813C3.90183 63.8507 4.18911 67.0409 5.65794 71.1347L6.3298 70.3003C6.64025 69.913 7.2148 69.8162 7.61792 70.1066C8.0164 70.3925 8.13688 70.9226 7.87277 71.3329C7.79863 71.4989 6.96923 73.5735 9.80031 77.4875C10.1015 77.9024 10.0042 78.4833 9.58717 78.7829C9.42036 78.9028 9.23039 78.9581 9.04505 78.9581Z" fill="#005871"/>
<path d="M24.5439 59.591C24.5439 59.591 29.1821 68.9266 38.3102 68.4702C47.4382 68.0138 49.5928 62.6429 50.6771 60.5453C51.7567 58.4477 53.068 54.5475 51.7567 52.7173L24.5439 59.591Z" fill="#005871"/>
<path d="M22.4499 18.0441C22.4499 18.0441 14.3597 6.58325 10.0598 7.5606C5.75527 8.53795 4.1706 29.8599 4.79613 35.4705C4.79613 35.4705 3.94356 34.092 2.16428 33.8846C2.16428 33.8846 2.41449 37.4344 4.61542 39.9654C4.61542 39.9654 3.85089 38.7068 1.26074 39.177C1.26074 39.177 3.54971 41.8233 3.60994 43.612L2.00674 43.257C2.00674 43.257 3.67481 46.4841 5.66723 46.3919" fill="white"/>
<path d="M5.54208 47.3555C5.50038 47.3647 5.45868 47.3694 5.41698 47.3694C2.84537 47.4892 1.31167 44.0086 1.14023 43.6121C1.00585 43.2894 1.06146 42.9252 1.28387 42.6578C1.50628 42.3904 1.86306 42.2705 2.20594 42.3489L2.27544 42.3627C1.82136 41.4315 1.07999 40.3988 0.547135 39.781C0.32936 39.5275 0.26449 39.1771 0.375695 38.8636C0.4869 38.5501 0.760278 38.3196 1.08926 38.2597C1.55725 38.1767 1.9789 38.1398 2.35885 38.1398C1.39044 36.0284 1.23753 34.0644 1.22826 33.9492C1.20973 33.6726 1.3163 33.4006 1.51554 33.2116C1.71942 33.0226 1.9928 32.9304 2.27081 32.9626C2.83147 33.0272 3.32262 33.1885 3.73964 33.3914C3.6655 30.026 3.94351 24.7381 4.65244 19.6531C5.13433 16.2001 5.73669 13.3741 6.44562 11.2534C7.37696 8.46888 8.48901 6.96596 9.85126 6.65708C12.0105 6.16841 14.7952 7.76352 18.3492 11.5392C20.8281 14.167 22.7371 16.8732 22.8159 16.9884C23.1124 17.408 23.0105 17.9888 22.5842 18.2839C22.1626 18.5789 21.5787 18.4775 21.2822 18.0534C21.2636 18.0257 19.3593 15.3288 16.9684 12.7978C14.0817 9.73667 11.6352 8.15539 10.259 8.46888C10.0273 8.5242 9.18867 8.92067 8.21099 11.8435C7.5484 13.8305 6.95531 16.6196 6.49659 19.9113C5.63939 26.0843 5.42161 32.7413 5.71816 35.3737C5.76449 35.8071 5.50501 36.2128 5.09263 36.3557C4.68024 36.4986 4.22152 36.3373 3.99448 35.9638C3.98058 35.9454 3.76744 35.6227 3.35042 35.323C3.61453 36.4156 4.13812 37.9185 5.14823 39.1633C5.30114 39.32 5.37991 39.4445 5.40771 39.4906C5.65792 39.9055 5.55135 40.4403 5.1575 40.7215C4.76365 41.0073 4.22152 40.9428 3.90181 40.5786C3.85548 40.5233 3.80451 40.468 3.75817 40.4126C3.66087 40.325 3.46163 40.1821 3.10484 40.0945C3.77671 41.1042 4.4949 42.4365 4.5366 43.5844C4.54587 43.8702 4.42077 44.1469 4.19836 44.3313C4.08715 44.4235 3.96205 44.4834 3.82767 44.5203C4.27713 45.0873 4.81462 45.5437 5.32431 45.5207C5.83863 45.4976 6.27881 45.8941 6.30198 46.4058C6.32515 46.8761 5.99153 47.2818 5.53745 47.3647L5.54208 47.3555Z" fill="#005871"/>
<path d="M16.338 22.1335C16.338 22.1335 17.5057 21.1884 17.5613 20.0497C17.6215 18.9064 13.6969 9.16974 11.2133 10.2162C8.72976 11.2674 4.9627 32.7138 6.88098 33.7004C8.79926 34.6823 9.88351 31.824 10.4349 30.4594C10.9863 29.0948 10.472 26.6561 11.2967 25.1116L13.1594 25.9691C13.1594 25.9691 12.6497 22.8066 13.4467 21.3267L14.4475 22.4055C14.4475 22.4055 14.6607 20.6352 15.402 20.3033L16.338 22.1289V22.1335Z" fill="#F18C8C"/>
<path d="M23.3626 48.047C25.0234 48.047 26.3698 46.7074 26.3698 45.055C26.3698 43.4026 25.0234 42.063 23.3626 42.063C21.7018 42.063 20.3555 43.4026 20.3555 45.055C20.3555 46.7074 21.7018 48.047 23.3626 48.047Z" fill="#005871"/>
<path d="M24.8685 43.4321C24.9427 43.8378 24.6739 44.2296 24.2616 44.3034C23.8538 44.3772 23.46 44.1098 23.3858 43.6995C23.3117 43.2938 23.5804 42.9019 23.9928 42.8281C24.4006 42.7544 24.7944 43.0218 24.8685 43.4321Z" fill="white"/>
<path d="M49.7078 43.1203C51.1284 42.2643 51.5826 40.4246 50.7222 39.0111C49.8619 37.5977 48.0128 37.1458 46.5922 38.0018C45.1716 38.8578 44.7175 40.6976 45.5778 42.111C46.4382 43.5244 48.2872 43.9763 49.7078 43.1203Z" fill="#005871"/>
<path d="M49.6581 38.9374C49.7322 39.3431 49.4635 39.735 49.0511 39.8088C48.6387 39.8825 48.2495 39.6151 48.1754 39.2048C48.1012 38.7991 48.37 38.4073 48.7824 38.3335C49.1947 38.2598 49.584 38.5271 49.6581 38.9374Z" fill="white"/>
<path d="M35.2942 55.437C35.2942 55.437 29.7293 57.7329 28.6914 64.7956C27.6535 71.8584 31.5503 73.6287 35.498 73.7762C40.2196 73.9514 41.3456 70.7612 40.9656 68.0734C40.5857 65.3857 40.8451 60.5266 42.1611 58.9085L35.2895 55.437H35.2942Z" fill="#F18C8C"/>
<path d="M35.7528 74.712C35.6602 74.712 35.5629 74.712 35.4656 74.7073C32.6484 74.6013 30.5447 73.7438 29.2149 72.1487C27.7785 70.4337 27.292 67.9166 27.7693 64.6618C28.8674 57.1657 34.6918 54.6808 34.9373 54.5794C35.1875 54.4734 35.4748 54.4872 35.7204 54.6071L42.5919 58.0785C42.8421 58.2076 43.0228 58.4381 43.0831 58.7147C43.1433 58.9913 43.0738 59.2772 42.8931 59.4938C41.8876 60.7247 41.503 65.1689 41.8969 67.9442C42.1749 69.8943 41.7255 71.6462 40.6412 72.8725C39.5431 74.1172 37.8982 74.735 35.7575 74.712H35.7528ZM35.2848 56.4742C34.803 56.7323 33.9087 57.281 32.9681 58.1892C31.1378 59.9687 30.0073 62.2369 29.6134 64.9246C29.2149 67.6308 29.5624 69.6592 30.6467 70.9547C31.6244 72.1257 33.2693 72.7619 35.5351 72.8448C37.2356 72.9094 38.4773 72.5037 39.2372 71.6416C39.9462 70.8394 40.2427 69.5808 40.0481 68.1978C39.7608 66.1555 39.7701 61.7482 40.8682 59.291L35.2941 56.4742H35.2848Z" fill="#005871"/>
<path d="M34.1913 69.9915C33.7372 69.9869 33.3433 69.6549 33.2784 69.1939C32.1942 61.6748 36.3736 57.3597 36.5497 57.1799C36.9111 56.8157 37.5042 56.8111 37.8703 57.1706C38.2363 57.5302 38.241 58.1157 37.8795 58.4845C37.8564 58.5076 36.9297 59.4757 36.1327 61.2322C35.067 63.588 34.7241 66.1789 35.1226 68.9358C35.1967 69.4429 34.8399 69.9131 34.3303 69.9869C34.2839 69.9961 34.233 69.9961 34.1866 69.9961L34.1913 69.9915Z" fill="#005871"/>
<path d="M46.7668 45.9727C46.7668 45.9727 52.8414 47.8352 52.5448 52.9478C52.2483 58.0605 47.1468 62.5462 44.5474 61.2876C41.948 60.029 39.7563 59.7155 38.8667 59.7847C38.0141 60.029 36.0726 61.0894 34.0849 63.1824C32.0971 65.2754 25.7352 62.8643 23.6455 58.185C21.5558 53.5056 26.5785 49.6331 26.5785 49.6331" fill="white"/>
<path d="M46.7668 45.9727C47.0587 46.0419 47.346 46.1294 47.6286 46.2309C47.9112 46.3323 48.1939 46.4429 48.4719 46.5628C49.0233 46.8117 49.5561 47.1068 50.0658 47.4526C50.3207 47.6231 50.5663 47.8122 50.8026 48.0104C51.0342 48.2132 51.2659 48.4253 51.4744 48.6604C51.8961 49.1214 52.2621 49.6516 52.5448 50.2279C52.8182 50.8088 52.9989 51.4403 53.073 52.0858L53.0962 52.3301C53.1054 52.4131 53.1101 52.4915 53.1101 52.5744V52.8188L53.1147 52.9386V52.9709V52.9801C53.1147 52.9894 53.1147 52.9709 53.1147 53.0032V53.017V53.0723C53.1054 53.2245 53.1008 53.3674 53.0915 53.5195L53.0406 54.0082C52.9572 54.6398 52.7996 55.2576 52.5957 55.8569C52.3872 56.4562 52.1324 57.0371 51.8266 57.5903C51.2103 58.6967 50.4272 59.7156 49.4588 60.5777C48.9723 61.0064 48.4487 61.4029 47.851 61.721C47.6981 61.7994 47.5498 61.8777 47.3877 61.9469C47.3089 61.9792 47.2301 62.016 47.1467 62.0483L46.8965 62.1359C46.8131 62.1682 46.7251 62.1912 46.6417 62.2143C46.5536 62.2373 46.4702 62.265 46.3775 62.2834L46.1042 62.3341C46.0161 62.3526 45.9142 62.3572 45.8215 62.3664C45.4416 62.3987 45.0292 62.3848 44.6168 62.2604C44.5149 62.2373 44.4129 62.1912 44.3156 62.1543L44.1674 62.0944C44.1442 62.0852 44.1905 62.1036 44.1813 62.1036H44.1766L44.1627 62.0944L44.1349 62.0852L44.0839 62.0621L43.6762 61.8823L43.2684 61.7025C43.1341 61.6472 43.009 61.6057 42.8792 61.555C42.6198 61.4582 42.3695 61.3614 42.0962 61.283L41.693 61.1585L41.5911 61.1263L41.4892 61.0986L41.2853 61.0479L40.8822 60.9419L40.4744 60.8589C40.201 60.799 39.9369 60.7713 39.6682 60.7344L39.2836 60.7114H39.2373H39.1956H39.1122H38.9454L39.1307 60.6791C39.0797 60.6975 39.0288 60.716 38.9732 60.7344L38.8944 60.7621L38.8527 60.7759L38.811 60.7943L38.4588 60.9511C38.2225 61.0802 37.9816 61.1954 37.7499 61.3522L37.3978 61.5689L37.0549 61.8086L36.8834 61.9284L36.8 61.9884L36.7166 62.0529L36.3877 62.3111C36.1606 62.4771 35.9521 62.6661 35.739 62.8505C35.6324 62.9427 35.5258 63.0349 35.4192 63.1317L35.1134 63.4267L34.8076 63.7218L34.6871 63.837L34.6037 63.9108L34.5203 63.9846L34.5018 64.003L34.4925 64.0122L34.474 64.0261L34.3999 64.0814C34.3026 64.1505 34.2006 64.2289 34.1033 64.2842C34.0153 64.3349 33.9226 64.381 33.8299 64.4271C33.7373 64.4732 33.6446 64.5009 33.5519 64.5424C33.5056 64.5608 33.4593 64.5793 33.4129 64.5931L33.2739 64.63C33.1813 64.653 33.0886 64.6853 32.9959 64.6991L32.7225 64.7452C32.6299 64.7591 32.5418 64.7637 32.4492 64.7729C32.3565 64.7821 32.2684 64.7913 32.1804 64.7867H31.9163C31.8283 64.7867 31.7449 64.7867 31.6568 64.7775C31.4807 64.7729 31.3139 64.7452 31.1471 64.7268C30.4753 64.6392 29.8405 64.4502 29.2335 64.2197C28.0241 63.7541 26.926 63.0764 25.9576 62.2558C25.4711 61.8455 25.0262 61.3891 24.6185 60.9004C24.2154 60.4117 23.8493 59.8861 23.5481 59.3283L23.3304 58.9042C23.2609 58.7613 23.2006 58.6137 23.1358 58.4662L23.1126 58.4109V58.3971C23.0894 58.3556 23.0987 58.3832 23.0941 58.3694L23.0848 58.3371L23.0477 58.2311L22.9736 58.019C22.9597 57.9822 22.9504 57.9499 22.9365 57.913L22.9041 57.7885L22.8392 57.5442C22.6817 56.9034 22.6261 56.258 22.677 55.6125C22.7326 54.9717 22.8902 54.3493 23.1219 53.7685C23.2377 53.478 23.3767 53.1968 23.5203 52.9248C23.6732 52.6574 23.8354 52.3946 24.0115 52.1457C24.3636 51.6432 24.7621 51.1822 25.1884 50.758C25.4062 50.546 25.6286 50.3431 25.8603 50.1541C26.092 49.9605 26.3283 49.7761 26.5785 49.6101C26.1476 50.025 25.7583 50.4722 25.4016 50.9424C25.0448 51.4127 24.7204 51.9014 24.4517 52.4131C24.3127 52.6666 24.1968 52.934 24.0856 53.1968C23.9837 53.4642 23.8818 53.7316 23.8123 54.0036C23.664 54.5476 23.5806 55.1008 23.5945 55.6494C23.6037 56.1934 23.701 56.7374 23.8771 57.2399L23.942 57.4197L23.9744 57.5119C23.9837 57.5442 24.0022 57.5811 24.0161 57.6133L24.1088 57.8162L24.1551 57.9176L24.1644 57.9453C24.1644 57.9453 24.1737 57.9775 24.1598 57.936V57.9453L24.1922 57.9914C24.2571 58.1112 24.3219 58.2357 24.3914 58.3556L24.6092 58.7106C24.915 59.1716 25.2579 59.6095 25.6425 60.0106C26.0271 60.4117 26.4441 60.7805 26.8889 61.1217C27.3337 61.4582 27.8017 61.7579 28.2882 62.0206C28.7748 62.2834 29.2798 62.5093 29.7988 62.6799C30.3131 62.8505 30.8413 62.9796 31.3556 63.0303C31.8653 63.081 32.375 63.0625 32.7735 62.9288L32.8476 62.9058C32.8708 62.8966 32.894 62.8874 32.9171 62.8781C32.9635 62.8551 33.0098 62.8413 33.0515 62.8182C33.0932 62.7951 33.1303 62.7721 33.172 62.7491C33.2044 62.7306 33.2183 62.7122 33.2415 62.6983L33.26 62.6891C33.26 62.6891 33.26 62.6891 33.2647 62.6891L33.2739 62.6799L33.2925 62.6615L33.3759 62.5831L33.4593 62.5047C33.501 62.4678 33.4129 62.5508 33.4222 62.5416H33.4268L33.4361 62.5278L33.4546 62.5047L33.4963 62.4632L33.8253 62.1313L34.1543 61.7994C34.2655 61.6887 34.386 61.5873 34.5018 61.4813C34.7335 61.2692 34.9652 61.0571 35.2154 60.8635C35.4609 60.6653 35.7065 60.467 35.966 60.2872L36.3552 60.0106C36.4896 59.923 36.624 59.84 36.763 59.7525C37.0271 59.5773 37.3236 59.4297 37.6109 59.2684L38.0743 59.0563L38.1345 59.0287L38.1994 59.0056L38.3337 58.9595L38.5978 58.8673C38.6581 58.8443 38.723 58.835 38.7832 58.835H39.0658L39.2048 58.8258H39.2743H39.3392L39.8489 58.8627C40.1732 58.9088 40.5022 58.9457 40.8127 59.0194C40.9702 59.0517 41.1278 59.084 41.2853 59.1162L41.744 59.2361C42.0545 59.3099 42.351 59.4113 42.6522 59.5127C42.9534 59.6049 43.2499 59.7294 43.5511 59.8447C43.6994 59.9046 43.8569 59.9599 43.9959 60.0244L44.4037 60.2135L44.8114 60.4025L44.9365 60.4578L44.9968 60.4809C45.0338 60.4947 45.0709 60.5177 45.1126 60.527C45.2748 60.5823 45.4694 60.6007 45.6779 60.5869C46.0995 60.5731 46.5814 60.4071 47.0401 60.1812C47.5035 59.9507 47.9529 59.651 48.37 59.3053C48.7916 58.9641 49.1855 58.5723 49.5515 58.1573C49.9176 57.7424 50.2512 57.2952 50.5431 56.825C50.835 56.3548 51.0991 55.8615 51.3169 55.3498C51.53 54.838 51.7015 54.3079 51.8219 53.7685L51.8961 53.3766C51.9192 53.2383 51.9331 53.0862 51.9563 52.9386L51.9656 52.8833V52.8695C51.9656 52.9018 51.9656 52.8741 51.9656 52.8787V52.8464V52.745L51.9841 52.5422C51.9888 52.473 51.9887 52.4085 51.9887 52.3393V52.1365C51.9748 51.5971 51.8729 51.0623 51.6876 50.546C51.5022 50.0296 51.2289 49.541 50.8999 49.0846C50.7377 48.854 50.5524 48.6374 50.3577 48.4253C50.1585 48.2178 49.9593 48.0104 49.7369 47.8214C49.3059 47.4341 48.8287 47.0884 48.3283 46.7749C47.8278 46.4614 47.3043 46.1802 46.7575 45.9404L46.7668 45.9727Z" fill="#005871"/>
<path d="M42.5825 49.1994C42.9346 51.1172 41.0488 54.6532 38.0277 55.2018C35.0066 55.7504 31.9902 53.0996 31.6381 51.1818C31.2859 49.2639 33.5239 47.6504 36.545 47.1064C39.566 46.5578 42.2303 47.2862 42.5825 49.1994Z" fill="#005871"/>
<path d="M38.3843 14.5496C38.3843 14.5496 40.84 1.71952 45.4504 0.954233C50.0608 0.184338 62.284 20.2016 63.2107 25.6278L65.2356 24.2632C65.2356 24.2632 65.3422 27.0385 63.6231 30.0812C63.6231 30.0812 64.3135 28.357 67.5106 29.3758L65.0178 31.8423C65.0178 31.8423 66.3662 31.1784 68.2427 33.3682L65.0641 35.5488" fill="white"/>
<path d="M65.2312 36.4571C64.879 36.5217 64.5083 36.3787 64.2952 36.0699C64.0033 35.6457 64.1099 35.0695 64.5361 34.779L66.788 33.23C66.0189 32.6076 65.5185 32.6583 65.4073 32.6814C65.0134 32.9211 64.5408 32.8059 64.2442 32.4463C63.9431 32.0775 64.0218 31.5104 64.3601 31.1739L65.5741 29.9752C64.8744 30.0029 64.5964 30.2887 64.5084 30.404C64.4852 30.4455 64.462 30.487 64.4389 30.5285C64.1979 30.9526 63.665 31.1232 63.2202 30.9111C62.7754 30.699 62.5715 30.1827 62.7569 29.7309C62.7661 29.7125 62.8032 29.6249 62.8773 29.4958C63.5631 28.251 63.9199 27.0662 64.1052 26.1396L63.7346 26.3885C63.4704 26.5637 63.1368 26.596 62.8449 26.4761C62.553 26.3517 62.3445 26.0889 62.2889 25.7754C61.8626 23.2675 58.6284 16.9838 54.9355 11.4793C52.9523 8.52419 51.0248 6.06237 49.3706 4.36583C46.9334 1.87174 45.8723 1.82103 45.6035 1.86713C45.5943 1.86713 45.585 1.86713 45.5804 1.86713C44.0791 2.13913 42.4759 4.4396 41.0673 8.34901C39.9136 11.5485 39.3066 14.688 39.3019 14.7202C39.2046 15.2227 38.7181 15.5547 38.2084 15.4579C37.7034 15.361 37.3698 14.877 37.4671 14.3699C37.4949 14.2362 38.1065 11.0552 39.3112 7.71741C40.9978 3.0335 42.9949 0.451812 45.2468 0.0415081C45.2653 0.0415081 45.2792 0.0368979 45.2977 0.0322878C46.7156 -0.20283 48.4856 0.788353 50.7097 3.07038C52.4426 4.8499 54.4443 7.39931 56.4877 10.4466C59.8934 15.5178 62.7522 20.9163 63.7809 24.1111L64.7076 23.4841C64.9902 23.2951 65.3517 23.2721 65.6528 23.4242C65.954 23.5763 66.1532 23.8806 66.1625 24.2172C66.1625 24.3094 66.2181 25.9552 65.4999 28.1173C66.1255 28.0943 66.8761 28.1911 67.7889 28.4815C68.0993 28.5784 68.3356 28.8319 68.4144 29.15C68.4885 29.4635 68.3959 29.8001 68.1642 30.0259L67.0105 31.1693C67.5943 31.4551 68.2522 31.9438 68.9473 32.7598C69.1187 32.958 69.1975 33.2208 69.1604 33.4836C69.128 33.7463 68.9843 33.9769 68.7666 34.129L65.588 36.3096C65.4768 36.388 65.3517 36.4341 65.2265 36.4571H65.2312Z" fill="#005871"/>
<path d="M46.1643 17.6617C46.1643 17.6617 42.8745 15.3935 42.8838 13.9966C42.8931 12.5951 43.5325 2.56345 45.6964 3.0383C47.8602 3.51314 58.888 20.2849 59.1058 22.5761C59.3236 24.8674 56.321 24.5447 53.5317 22.4563C50.7423 20.3679 52.1509 20.1097 50.8766 17.6801L50.1909 18.8373C50.1909 18.8373 49.3012 16.1772 48.2911 15.0247L47.42 16.8457C47.42 16.8457 45.8678 15.3013 45.752 14.6697C45.752 14.6697 44.8855 15.7715 46.169 17.6709L46.1643 17.6617Z" fill="#F18C8C"/>
<path d="M38.9775 60.4069C38.4678 60.4991 37.9859 60.1626 37.8932 59.6601L36.5773 52.4636C36.4846 51.9565 36.8229 51.477 37.3279 51.3848C37.8376 51.2926 38.3195 51.6292 38.4122 52.1317L39.7281 59.3281C39.8208 59.8353 39.4825 60.3147 38.9775 60.4069Z" fill="#005871"/>
<path d="M64.5542 77.3305L63.3263 77.8422C63.3263 77.8422 59.1376 80.6221 56.3991 77.2844C53.6607 73.9512 56.4547 66.6119 63.8313 65.9987C71.2079 65.3856 75.4522 68.3038 76.1241 77.1922" fill="white"/>
<path d="M59.8142 79.8016C58.401 79.8016 56.9182 79.3037 55.7135 77.8376C54.3049 76.1181 54.0872 73.4995 55.1529 71.0054C56.5846 67.6538 59.7957 65.4548 63.7527 65.1275C67.8395 64.7909 70.8791 65.5193 73.0429 67.3542C75.3551 69.3181 76.6478 72.5129 76.9953 77.1277C77.0324 77.6117 76.6664 78.0313 76.1845 78.0682C75.6979 78.105 75.2763 77.7408 75.2392 77.2614C74.9288 73.1353 73.8353 70.3323 71.8985 68.6911C70.1099 67.1697 67.492 66.5796 63.8963 66.8747C60.6065 67.1467 57.9423 68.9493 56.7746 71.6923C55.9637 73.5871 56.0796 75.5187 57.0758 76.7312C59.2674 79.4005 62.6916 77.2061 62.8353 77.1092C62.8816 77.077 62.9326 77.0539 62.9835 77.0309L64.2114 76.5191C64.6609 76.3347 65.1752 76.5422 65.3652 76.9894C65.5505 77.4366 65.342 77.9483 64.8926 78.1373L63.7388 78.6168C62.8399 79.193 61.3711 79.8016 59.8142 79.8016Z" fill="#005871"/>
<path d="M60.4214 74.6753C60.4214 74.6753 60.1434 79.2347 63.9985 79.1241C67.8536 79.0135 67.9092 75.9569 67.9648 75.4544" fill="white"/>
<path d="M63.8549 80C62.6501 80 61.6586 79.6127 60.9126 78.8428C59.3974 77.2846 59.5318 74.7306 59.541 74.6199C59.5688 74.1359 59.9905 73.7717 60.4724 73.7993C60.9589 73.827 61.3249 74.2419 61.2971 74.726C61.2971 74.726 61.2045 76.63 62.1821 77.6304C62.6131 78.0683 63.1969 78.2666 63.9707 78.2481C66.5423 78.1744 66.9732 76.63 67.0752 75.4774C67.0752 75.4313 67.0844 75.3898 67.0844 75.3576C67.14 74.8781 67.5756 74.5277 68.0575 74.5831C68.5394 74.6384 68.8915 75.0717 68.8359 75.5512C68.8359 75.5742 68.8359 75.5973 68.8266 75.6296C68.5023 79.3177 65.6758 79.9493 64.017 80C63.9614 80 63.9058 80 63.8502 80H63.8549Z" fill="#005871"/>
<path d="M72.8112 75.1776C72.8112 75.1776 72.6815 79.3959 68.4418 78.898C65.1473 78.5107 66.0277 74.0112 66.0277 74.0112" fill="white"/>
<path d="M69.123 79.8156C68.8682 79.8156 68.6087 79.8018 68.34 79.7695C67.3113 79.6497 66.468 79.1748 65.8981 78.4049C64.6517 76.7038 65.1058 74.1359 65.166 73.8455C65.2587 73.3706 65.722 73.0618 66.1993 73.154C66.6765 73.2462 66.987 73.7072 66.8943 74.182C66.7831 74.7583 66.6487 76.4548 67.3252 77.3769C67.6032 77.7549 68.0017 77.967 68.5485 78.0315C69.5493 78.1514 70.337 77.967 70.893 77.4875C71.8614 76.6577 71.9309 75.1686 71.9309 75.1548C71.9448 74.6799 72.3387 74.3065 72.8113 74.3065C72.8206 74.3065 72.8298 74.3065 72.8391 74.3065C73.3256 74.3203 73.7056 74.726 73.6917 75.2101C73.6917 75.3023 73.6036 77.4783 72.0421 78.8199C71.2637 79.4883 70.286 79.8203 69.123 79.8203V79.8156Z" fill="#005871"/>
<path d="M12.4459 77.331L13.6738 77.8427C13.6738 77.8427 17.8625 80.6226 20.6009 77.2849C23.3393 73.9517 20.5453 66.6124 13.1687 65.9992C5.79215 65.3861 1.54784 68.3043 0.875977 77.1927" fill="white"/>
<path d="M17.1859 79.802C15.6291 79.802 14.1602 79.198 13.2613 78.6217L12.1076 78.1423C11.6581 77.9579 11.445 77.4415 11.635 76.9944C11.8203 76.5472 12.3393 76.3351 12.7887 76.5241L14.0166 77.0359C14.0676 77.0589 14.1185 77.082 14.1649 77.1142C14.3085 77.2064 17.7281 79.4009 19.9197 76.7316C20.9159 75.5191 21.0318 73.5875 20.2209 71.6927C19.0486 68.9496 16.389 67.1471 13.0992 66.8751C9.50354 66.5754 6.89023 67.1701 5.09706 68.6915C3.16024 70.3373 2.06673 73.1403 1.75628 77.2618C1.71921 77.7458 1.29756 78.1054 0.811041 78.0685C0.32452 78.0316 -0.0368953 77.6121 0.000172937 77.1281C0.347688 72.5133 1.64044 69.3139 3.95257 67.3545C6.11643 65.5151 9.15603 64.7867 13.2428 65.1278C17.1952 65.4552 20.4109 67.6542 21.8426 71.0058C22.9083 73.5045 22.6952 76.123 21.282 77.838C20.0819 79.304 18.5945 79.7973 17.1813 79.802H17.1859Z" fill="#005871"/>
<path d="M16.5785 74.6753C16.5785 74.6753 16.8566 79.2347 13.0015 79.1241C9.14636 79.0135 9.09076 75.9569 9.03516 75.4544" fill="white"/>
<path d="M13.1453 80.0003C13.0897 80.0003 13.0341 80.0003 12.9785 80.0003C11.3197 79.9542 8.4932 79.3226 8.16885 75.6298C8.16885 75.5976 8.16422 75.5699 8.15959 75.5515C8.10398 75.072 8.45613 74.6387 8.93802 74.5833C9.41991 74.528 9.85546 74.8784 9.91106 75.3578C9.91106 75.3901 9.92033 75.4316 9.92033 75.4777C10.0223 76.6302 10.4532 78.1746 13.0248 78.2484C13.8032 78.2668 14.3871 78.0686 14.818 77.626C15.7864 76.6348 15.6983 74.7493 15.6983 74.7309C15.6705 74.2468 16.0366 73.8319 16.5231 73.8042C17.005 73.7766 17.4266 74.1408 17.4544 74.6248C17.4591 74.7309 17.5981 77.2895 16.0829 78.8477C15.3369 79.6176 14.3453 80.0049 13.1406 80.0049L13.1453 80.0003Z" fill="#005871"/>
<path d="M4.18896 75.1781C4.18896 75.1781 4.3187 79.3964 8.55838 78.8985C11.8528 78.5112 10.9725 74.0117 10.9725 74.0117" fill="white"/>
<path d="M7.87714 79.8159C6.71412 79.8159 5.73644 79.4793 4.95801 78.8155C3.39651 77.4785 3.30848 75.2979 3.30848 75.2057C3.29457 74.7216 3.67452 74.3159 4.16104 74.3021C4.64757 74.2837 5.05068 74.6663 5.06922 75.1458C5.06922 75.1827 5.14799 76.6671 6.11639 77.4877C6.67242 77.9626 7.46012 78.1378 8.45169 78.0225C8.99382 77.958 9.39693 77.7459 9.67494 77.3679C10.3514 76.4458 10.2171 74.7493 10.1059 74.173C10.0132 73.6982 10.3283 73.2372 10.8055 73.1496C11.2828 73.0574 11.7415 73.3663 11.8388 73.8411C11.8944 74.1269 12.3531 76.6994 11.1067 78.4005C10.5414 79.175 9.69811 79.6453 8.66484 79.7651C8.39609 79.7974 8.13198 79.8112 7.88177 79.8112L7.87714 79.8159Z" fill="#005871"/>
</g>
<defs>
<clipPath id="clip0_305_1619">
<rect width="77" height="80" fill="white"/>
</clipPath>
</defs>
</svg>
