<svg width="32" height="32" viewBox="0 0 32 32" fill="none" xmlns="http://www.w3.org/2000/svg">
<rect width="32" height="32" rx="5" fill="#04AFCB" fill-opacity="0.35"/>
<path d="M16.0022 10.8723C13.1645 10.8723 10.8756 13.1617 10.8756 16C10.8756 18.8383 13.1645 21.1277 16.0022 21.1277C18.8399 21.1277 21.1288 18.8383 21.1288 16C21.1288 13.1617 18.8399 10.8723 16.0022 10.8723ZM16.0022 19.3337C14.1684 19.3337 12.6693 17.8387 12.6693 16C12.6693 14.1613 14.164 12.6663 16.0022 12.6663C17.8405 12.6663 19.3352 14.1613 19.3352 16C19.3352 17.8387 17.836 19.3337 16.0022 19.3337ZM22.5343 10.6625C22.5343 11.3275 21.9989 11.8585 21.3385 11.8585C20.6737 11.8585 20.1428 11.323 20.1428 10.6625C20.1428 10.002 20.6782 9.46647 21.3385 9.46647C21.9989 9.46647 22.5343 10.002 22.5343 10.6625ZM25.9297 11.8764C25.8539 10.2742 25.488 8.85507 24.3146 7.68582C23.1456 6.51657 21.7267 6.15062 20.1249 6.07029C18.4741 5.97657 13.5259 5.97657 11.8751 6.07029C10.2777 6.14616 8.8589 6.51211 7.68544 7.68136C6.51199 8.85061 6.15059 10.2698 6.07027 11.8719C5.97658 13.5232 5.97658 18.4724 6.07027 20.1236C6.14612 21.7258 6.51199 23.1449 7.68544 24.3142C8.8589 25.4834 10.2733 25.8494 11.8751 25.9297C13.5259 26.0234 18.4741 26.0234 20.1249 25.9297C21.7267 25.8538 23.1456 25.4879 24.3146 24.3142C25.4835 23.1449 25.8494 21.7258 25.9297 20.1236C26.0234 18.4724 26.0234 13.5276 25.9297 11.8764ZM23.797 21.8953C23.449 22.7701 22.7752 23.4439 21.8963 23.7965C20.58 24.3186 17.4568 24.1981 16.0022 24.1981C14.5477 24.1981 11.42 24.3142 10.1082 23.7965C9.23369 23.4484 8.55996 22.7745 8.20747 21.8953C7.68544 20.5788 7.80591 17.4549 7.80591 16C7.80591 14.5451 7.68991 11.4167 8.20747 10.1047C8.55549 9.22995 9.22922 8.55606 10.1082 8.2035C11.4244 7.68136 14.5477 7.80185 16.0022 7.80185C17.4568 7.80185 20.5845 7.68582 21.8963 8.2035C22.7708 8.5516 23.4445 9.22548 23.797 10.1047C24.319 11.4212 24.1985 14.5451 24.1985 16C24.1985 17.4549 24.319 20.5833 23.797 21.8953Z" fill="white"/>
</svg>
