<svg width="67" height="80" viewBox="0 0 67 80" fill="none" xmlns="http://www.w3.org/2000/svg">
<path d="M28.1112 5.86928C30.634 11.0418 28.4504 17.2571 23.2476 19.7613C18.0367 22.2655 11.7752 20.0979 9.25242 14.9336C6.72964 9.76102 8.91329 3.54573 14.116 1.04155C19.327 -1.46262 25.5884 0.704927 28.1112 5.86928Z" fill="white"/>
<path d="M64.3979 38.9493C63.7114 37.258 62.8263 35.6569 61.8172 34.1462C60.5434 31.5846 59.2531 30.6486 56.5814 28.7848C55.9445 28.3415 55.2828 27.9227 54.6294 27.4876C54.4308 27.3562 54.1744 27.504 54.191 27.7421L54.4639 31.2479C53.5127 31.6092 52.3795 32.0361 51.6517 32.7587C50.7997 33.6125 50.7501 34.9344 49.5424 35.5748C49.2778 35.7144 48.9883 35.8047 48.6988 35.895C48.3431 36.01 48.1198 36.3548 48.1611 36.7243L48.2273 37.3893C48.6078 38.5388 49.3936 39.3927 50.5019 39.8935C51.7178 40.4436 52.578 40.3122 53.4962 41.4699C53.4962 41.4699 56.9536 48.186 54.0338 53.8759C53.43 54.8857 52.7269 55.8217 51.9246 56.6756C48.1528 60.8465 42.032 62.932 36.6639 61.6183C32.0815 60.592 28.0781 57.119 26.8292 52.6033C26.1013 50.058 26.5066 47.4799 27.7638 45.3534C29.6497 42.1596 29.3354 38.1447 26.8374 35.3942L26.7382 35.2875C26.7382 35.2875 23.471 31.6913 17.3501 24.967C13.7272 20.9849 7.19284 21.7156 4.61216 26.4284C3.56996 28.3415 2.68492 30.3366 1.99012 32.3892C-3.43592 48.0465 2.49468 65.9616 16.5974 74.7468C24.9929 80.0917 35.7954 81.5039 45.233 78.3101C61.627 72.9158 70.9075 54.9761 64.3813 38.9493" fill="white"/>
<g opacity="0.76">
<mask id="mask0_1_30" style="mask-type:luminance" maskUnits="userSpaceOnUse" x="13" y="20" width="54" height="59">
<path d="M66.532 20.615H13.9507V78.0551H66.532V20.615Z" fill="white"/>
</mask>
<g mask="url(#mask0_1_30)">
<path d="M47.4084 53.301C47.3174 57.086 43.7194 61.5443 40.3364 63.2274C36.3909 65.2964 31.1882 64.8449 27.4164 62.3161C23.0491 59.5245 20.485 54.0564 20.882 48.7935C20.9399 47.8493 21.0971 46.9133 21.3204 45.9937C21.6182 44.8114 21.0971 43.5799 20.0135 43.0052L19.9225 42.9559C18.6074 42.258 16.9696 42.7835 16.2997 44.1136C15.2409 46.2236 14.513 48.5061 14.1739 50.8543C12.2053 64.6642 22.9995 76.9142 36.8955 77.9651C44.9187 78.6384 53.0909 75.4363 58.6162 69.6315C67.9381 60.0254 69.063 44.8525 61.7345 33.6371C60.9239 32.3727 60.0058 31.1657 59.0049 30.0327C59.1621 28.1853 59.2944 26.3298 59.2283 24.4742C59.1952 23.6121 59.129 21.0751 58.2605 20.6728C57.5409 20.3444 56.1017 21.7237 55.6302 22.1917C54.1 23.7189 52.8262 25.5744 51.5524 27.315L51.5689 25.2132C51.4449 22.4298 49.9891 21.7319 48.616 24.5645C48.0536 25.7304 47.7558 27.1919 47.458 28.4481L43.9675 28.5959L42.6441 30.747L34.0005 30.4268C33.2478 30.3939 32.644 31.0344 32.7101 31.7815C32.9417 34.2939 33.6862 37.0362 35.3983 38.8178C36.6308 40.0905 39.7491 39.4993 41.3951 40.1069C41.3951 40.1069 47.9874 46.2811 47.3836 53.3174" fill="#00B0C8"/>
</g>
</g>
</svg>
