<svg width="32" height="32" viewBox="0 0 32 32" fill="none" xmlns="http://www.w3.org/2000/svg">
<rect width="32" height="32" rx="5" fill="#04AFCB" fill-opacity="0.35"/>
<path d="M10.4768 26H6.33036V12.647H10.4768V26ZM8.40134 10.8256C7.07545 10.8256 6 9.72732 6 8.40139C6 7.7645 6.253 7.1537 6.70334 6.70335C7.15367 6.253 7.76446 6 8.40134 6C9.03821 6 9.649 6.253 10.0993 6.70335C10.5497 7.1537 10.8027 7.7645 10.8027 8.40139C10.8027 9.72732 9.72679 10.8256 8.40134 10.8256ZM25.9955 26H21.858V19.4999C21.858 17.9507 21.8268 15.9641 19.7022 15.9641C17.5464 15.9641 17.2161 17.6471 17.2161 19.3882V26H13.0741V12.647H17.0509V14.4685H17.1089C17.6625 13.4194 19.0147 12.3122 21.0321 12.3122C25.2286 12.3122 26 15.0756 26 18.665V26H25.9955Z" fill="white"/>
</svg>
