<svg width="308" height="45" viewBox="0 0 308 45" fill="none" xmlns="http://www.w3.org/2000/svg">
<g clip-path="url(#clip0_1_215)">
<g opacity="0.76">
<mask id="mask0_1_215" style="mask-type:luminance" maskUnits="userSpaceOnUse" x="30" y="10" width="10" height="10">
<path d="M39.2666 10.282H30.1072V19.4653H39.2666V10.282Z" fill="white"/>
</mask>
<g mask="url(#mask0_1_215)">
<path d="M34.6869 10.282C32.1558 10.282 30.1072 12.336 30.1072 14.8736C30.1072 17.4113 32.1558 19.4653 34.6869 19.4653C37.218 19.4653 39.2666 17.4113 39.2666 14.8736C39.2666 12.336 37.218 10.282 34.6869 10.282Z" fill="white"/>
</g>
</g>
<g opacity="0.76">
<mask id="mask1_1_215" style="mask-type:luminance" maskUnits="userSpaceOnUse" x="0" y="21" width="10" height="11">
<path d="M9.15942 21.9258H0V31.1092H9.15942V21.9258Z" fill="white"/>
</mask>
<g mask="url(#mask1_1_215)">
<path d="M4.57971 21.9258C2.04863 21.9258 0 23.9798 0 26.5175C0 29.0552 2.04863 31.1092 4.57971 31.1092C7.11078 31.1092 9.15942 29.0552 9.15942 26.5175C9.15942 23.9798 7.11078 21.9258 4.57971 21.9258Z" fill="white"/>
</g>
</g>
<g opacity="0.76">
<mask id="mask2_1_215" style="mask-type:luminance" maskUnits="userSpaceOnUse" x="9" y="27" width="22" height="15">
<path d="M30.6036 27.6952H9.14539V41.0005H30.6036V27.6952Z" fill="white"/>
</mask>
<g mask="url(#mask2_1_215)">
<path d="M14.5921 28.5855C13.739 28.8729 13.0049 29.4618 12.5504 30.289L12.5225 30.345C12.5225 30.345 11.4946 32.2238 9.57885 35.7288C8.43917 37.8038 9.68373 40.4046 12.012 40.7902C12.956 40.9444 13.9138 41.0215 14.8717 41.0075C22.1643 40.9865 28.7647 35.9321 30.3938 28.8168C30.4847 28.4453 30.5476 28.0737 30.6105 27.6952C30.5756 27.7232 30.5476 27.7583 30.5127 27.7863C25.926 31.8102 19.3815 31.8102 14.5921 28.5785" fill="white"/>
</g>
</g>
<g opacity="0.76">
<mask id="mask3_1_215" style="mask-type:luminance" maskUnits="userSpaceOnUse" x="14" y="23" width="17" height="8">
<path d="M30.7854 23.0966H14.5922V30.9199H30.7854V23.0966Z" fill="white"/>
</mask>
<g mask="url(#mask3_1_215)">
<path d="M30.6037 23.0966C30.2541 23.4751 29.8695 23.8186 29.457 24.1271C27.2616 25.8165 24.1641 26.3072 21.6401 25.3188C21.2415 26.3072 20.5843 27.1835 19.7033 27.7934C18.7454 28.4663 17.6197 28.6696 16.5569 28.4593C15.8857 28.3261 15.2075 28.3752 14.5852 28.5855C19.3747 31.8172 25.9191 31.8172 30.5058 27.7934C30.5408 27.7653 30.5687 27.7303 30.6037 27.7022C30.8414 26.174 30.8414 24.6178 30.6037 23.0966Z" fill="#005871"/>
</g>
</g>
<g opacity="0.76">
<mask id="mask4_1_215" style="mask-type:luminance" maskUnits="userSpaceOnUse" x="8" y="1" width="26" height="30">
<path d="M33.1627 1.00751H8.36938V30.9129H33.1627V1.00751Z" fill="white"/>
</mask>
<g mask="url(#mask4_1_215)">
<path d="M32.4146 22.8161L32.3656 22.7881C31.7853 22.4656 31.0651 22.5988 30.6176 23.0825C30.6176 23.0825 30.6106 23.0825 30.6036 23.0965C30.2541 23.4751 29.8695 23.8186 29.464 24.127C27.2685 25.8165 24.1711 26.3072 21.647 25.3187C21.5491 25.2767 21.4442 25.2416 21.3463 25.1996C19.074 24.2462 17.326 22.0099 17.1022 19.5985C16.9904 18.617 17.1372 17.6076 17.5008 16.6962C17.8993 15.7078 18.5566 14.8315 19.4376 14.2217C20.3954 13.5487 21.5211 13.3454 22.5839 13.5557C23.2551 13.6889 23.9334 13.6398 24.5556 13.4295C25.4017 13.1421 26.1428 12.5532 26.5973 11.726L26.6252 11.67C26.6252 11.67 27.6531 9.79123 29.5688 6.28615C30.7085 4.21114 29.464 1.61037 27.1357 1.22481C26.1987 1.07059 25.2408 1.00049 24.283 1.0075C16.9904 1.02853 10.39 6.08286 8.76089 13.1982C8.66999 13.5697 8.60707 13.9412 8.54414 14.3198C8.30641 15.841 8.30641 17.4043 8.54414 18.9255C8.9217 21.33 9.88659 23.6503 11.3829 25.5781C12.2988 26.7769 13.3895 27.7863 14.5852 28.5925C19.3746 31.8242 25.9191 31.8242 30.5058 27.8003C30.5407 27.7723 30.5687 27.7373 30.6036 27.7092C31.5336 26.875 32.3376 25.8936 32.9599 24.814C33.3655 24.12 33.1207 23.2227 32.4076 22.8301M8.60707 18.8554C8.7539 18.6941 8.91471 18.5469 9.07552 18.3997C8.91471 18.5469 8.76089 18.7012 8.60707 18.8554ZM9.43211 18.0913C9.51602 18.0212 9.60691 17.9511 9.69081 17.888C9.83065 17.7828 9.97049 17.6847 10.1103 17.5865C9.9635 17.6847 9.82366 17.7828 9.69081 17.888C9.59992 17.9511 9.51602 18.0212 9.43211 18.0913Z" fill="#00B0C8"/>
</g>
</g>
<g opacity="0.76">
<mask id="mask5_1_215" style="mask-type:luminance" maskUnits="userSpaceOnUse" x="5" y="11" width="26" height="15">
<path d="M30.6036 11.0952H5.99207V25.8235H30.6036V11.0952Z" fill="white"/>
</mask>
<g mask="url(#mask5_1_215)">
<path d="M27.765 16.4441C26.849 15.2454 25.7583 14.2359 24.5627 13.4297C19.7732 10.198 13.2288 10.198 8.64206 14.2219C8.60711 14.2499 8.57914 14.285 8.54418 14.313C7.61425 15.1472 6.81018 16.1286 6.1879 17.2082C5.78237 17.9022 6.02709 18.7995 6.74026 19.1921L6.78921 19.2201C7.36954 19.5426 8.0897 19.4094 8.53719 18.9257C8.53719 18.9257 8.54418 18.9187 8.55117 18.9117C8.90077 18.5331 9.28532 18.1896 9.69085 17.8812C11.8863 16.1917 14.9837 15.701 17.5078 16.6895C17.6057 16.7315 17.7106 16.7666 17.8085 16.8086C20.0808 17.762 21.8288 19.9983 22.0526 22.4098C22.1644 23.3912 22.0176 24.4006 21.654 25.312C24.1711 26.3004 27.2685 25.8097 29.464 24.1202C29.8765 23.8118 30.2541 23.4683 30.6107 23.0897C30.2331 20.6853 29.2682 18.3649 27.772 16.4371" fill="white"/>
</g>
</g>
<path d="M61.2213 34.0608C61.1164 35.8904 57.3268 38.8698 52.2227 38.8698C45.2937 38.8698 40.2595 33.3738 40.2595 26.595C40.2595 19.8161 45.2937 14.3552 52.2227 14.3552C57.3268 14.3552 61.1164 17.3275 61.2213 19.1572C61.3262 20.6083 60.2564 21.4776 59.0119 21.4074C57.187 21.3023 55.5299 18.5052 52.2157 18.5052C42.2173 18.5052 42.2173 34.6847 52.2157 34.6847C55.5229 34.6847 57.18 31.9227 59.0119 31.8175C60.2494 31.7474 61.3192 32.5746 61.2213 34.0608Z" fill="white"/>
<path d="M66.8987 14.18V36.7176C66.8987 38.1337 66.0037 38.8628 64.864 38.8628C63.7244 38.8628 62.7944 38.1337 62.7944 36.7176V14.18C62.7944 12.7639 63.6894 12.0349 64.864 12.0349C66.0387 12.0349 66.8987 12.7639 66.8987 14.18Z" fill="white"/>
<path d="M86.1754 29.4621C86.1754 34.6497 82.5536 38.8628 77.002 38.8628C71.4504 38.8628 67.8286 34.6427 67.8286 29.4621C67.8286 24.2816 71.4155 20.0966 77.002 20.0966C82.5886 20.0966 86.1754 24.3167 86.1754 29.4621ZM81.9313 29.4621C81.9313 26.4898 80.1414 24.1414 77.002 24.1414C73.8626 24.1414 72.0727 26.4898 72.0727 29.4621C72.0727 32.4344 73.8626 34.8179 77.002 34.8179C80.1414 34.8179 81.9313 32.4695 81.9313 29.4621Z" fill="white"/>
<path d="M99.7957 33.3668C99.7957 37.1733 96.6563 38.8628 93.3841 38.8628C90.5943 38.8628 87.6577 37.5869 86.5879 35.3717C85.8678 33.8505 86.8676 32.4344 88.245 32.4344C88.9372 32.4344 89.4896 32.813 89.9371 33.507C90.5943 34.5795 92.0766 35.1684 93.3841 35.1684C94.6286 35.1684 95.6914 34.6496 95.6914 33.5771C95.6914 30.3945 86.8956 31.7474 86.8956 25.3472C86.8956 21.7509 90.1049 20.0895 93.3072 20.0895C95.6844 20.0895 98.0687 21.0219 99.0685 22.7534C100.033 24.3798 98.8588 25.7608 97.3415 25.7608C96.7892 25.7608 96.2718 25.5505 95.6844 25.0668C94.8244 24.3727 93.6148 23.9241 92.615 23.9241C91.6851 23.9241 90.9929 24.3026 90.9929 25.1719C90.9929 28.5228 99.7887 26.8684 99.7887 33.3668" fill="white"/>
<path d="M115.416 33.0233C116.485 33.0233 117.485 33.8155 117.485 35.0983C117.485 37.3486 113.276 38.8698 109.522 38.8698C103.243 38.8698 100.075 34.166 100.075 29.4691C100.075 23.0058 104.732 20.0966 109.179 20.0966C113.248 20.0966 117.143 22.5151 117.143 26.8053C117.143 28.9854 116.073 29.9178 114.073 30.5768L106.075 33.1004C105.865 33.1705 105.83 33.4089 105.97 33.5491C106.83 34.3482 108.004 34.8319 109.522 34.8319C111.039 34.8319 113.143 34.2781 113.933 33.5841C114.381 33.2056 114.898 33.0303 115.416 33.0303M104.515 29.7706L112.619 27.2119C112.724 25.1018 111.032 23.9592 109.172 23.9592C106.83 23.9592 104.173 25.7538 104.278 29.5603C104.278 29.7005 104.417 29.8056 104.522 29.7706" fill="white"/>
<path d="M134.483 28.2494V36.7176C134.483 38.1337 133.588 38.8628 132.413 38.8628C131.238 38.8628 130.378 38.1337 130.378 36.7176V28.6279C130.378 25.6907 128.519 24.1344 126.344 24.1344C124.17 24.1344 122.31 25.6907 122.31 28.6279V36.7176C122.31 38.1337 121.415 38.8628 120.275 38.8628C119.135 38.8628 118.205 38.1337 118.205 36.7176V28.2494C118.205 22.8235 122.135 20.0895 126.344 20.0895C130.553 20.0895 134.483 22.8235 134.483 28.2494Z" fill="white"/>
<path d="M150.445 33.0233C151.515 33.0233 152.515 33.8155 152.515 35.0983C152.515 37.3486 148.306 38.8698 144.551 38.8698C138.272 38.8698 135.105 34.166 135.105 29.4691C135.105 23.0058 139.762 20.0966 144.208 20.0966C148.278 20.0966 152.172 22.5151 152.172 26.8053C152.172 28.9854 151.102 29.9178 149.103 30.5768L141.104 33.1004C140.894 33.1705 140.859 33.4089 140.999 33.5491C141.859 34.3482 143.034 34.8319 144.551 34.8319C146.068 34.8319 148.173 34.2781 148.963 33.5841C149.41 33.2056 149.928 33.0303 150.445 33.0303M139.552 29.7706L147.655 27.2119C147.76 25.1018 146.068 23.9592 144.208 23.9592C141.866 23.9592 139.209 25.7538 139.314 29.5603C139.314 29.7005 139.454 29.8056 139.559 29.7706" fill="white"/>
<path d="M166.24 33.3668C166.24 37.1733 163.101 38.8628 159.828 38.8628C157.039 38.8628 154.102 37.5869 153.032 35.3717C152.312 33.8505 153.312 32.4344 154.689 32.4344C155.381 32.4344 155.934 32.813 156.381 33.507C157.039 34.5795 158.521 35.1684 159.828 35.1684C161.073 35.1684 162.136 34.6496 162.136 33.5771C162.136 30.3945 153.34 31.7474 153.34 25.3472C153.34 21.7509 156.549 20.0895 159.751 20.0895C162.129 20.0895 164.513 21.0219 165.513 22.7534C166.478 24.3798 165.303 25.7608 163.786 25.7608C163.233 25.7608 162.716 25.5505 162.129 25.0668C161.269 24.3727 160.059 23.9241 159.059 23.9241C158.129 23.9241 157.437 24.3026 157.437 25.1719C157.437 28.5228 166.233 26.8684 166.233 33.3668" fill="white"/>
<path d="M180 33.3668C180 37.1733 176.861 38.8628 173.588 38.8628C170.799 38.8628 167.862 37.5869 166.792 35.3717C166.072 33.8505 167.072 32.4344 168.449 32.4344C169.142 32.4344 169.694 32.813 170.141 33.507C170.799 34.5795 172.281 35.1684 173.588 35.1684C174.833 35.1684 175.896 34.6496 175.896 33.5771C175.896 30.3945 167.1 31.7474 167.1 25.3472C167.1 21.7509 170.309 20.0895 173.512 20.0895C175.889 20.0895 178.273 21.0219 179.273 22.7534C180.238 24.3798 179.063 25.7608 177.546 25.7608C176.993 25.7608 176.476 25.5505 175.889 25.0668C175.029 24.3727 173.819 23.9241 172.819 23.9241C171.889 23.9241 171.197 24.3026 171.197 25.1719C171.197 28.5228 179.993 26.8684 179.993 33.3668" fill="white"/>
</g>
<mask id="path-22-inside-1_1_215" fill="white">
<path d="M196 0H307.346V45H196V0Z"/>
</mask>
<path d="M196 45H198V0H196H194V45H196Z" fill="white" mask="url(#path-22-inside-1_1_215)"/>
<g clip-path="url(#clip1_1_215)">
<path d="M266.594 21.8582C266.594 25.7838 263.827 28.9797 259.581 28.9797C255.335 28.9797 252.568 25.7838 252.568 21.8582C252.568 17.9325 255.307 14.7643 259.581 14.7643C263.855 14.7643 266.594 17.9556 266.594 21.8582ZM263.353 21.8582C263.353 19.6044 261.981 17.8263 259.581 17.8263C257.182 17.8263 255.814 19.6044 255.814 21.8582C255.814 24.1119 257.186 25.9177 259.581 25.9177C261.976 25.9177 263.353 24.1396 263.353 21.8582Z" fill="white"/>
<path d="M278.853 23.7147V24.4721C278.853 27.4832 276.532 28.9473 274.188 28.9473C271.844 28.9473 269.468 27.4555 269.468 24.4721V12.4551C269.468 11.3836 270.152 10.834 271.049 10.834C271.947 10.834 272.602 11.3836 272.602 12.4551V14.7597C272.602 14.889 272.709 14.9952 272.84 14.9952H276.002C278.006 14.9952 277.978 17.9509 276.002 17.9509H272.84C272.709 17.9509 272.602 18.0572 272.602 18.1865V24.3381C272.602 25.4881 273.393 26.0654 274.156 26.0654C274.918 26.0654 275.709 25.4881 275.709 24.3381V23.71C275.709 22.6386 276.369 22.089 277.262 22.089C278.155 22.089 278.843 22.6386 278.843 23.71" fill="white"/>
<path d="M291.027 23.7147V24.4721C291.027 27.4832 288.707 28.9473 286.363 28.9473C284.019 28.9473 281.647 27.4555 281.647 24.4721V12.4551C281.647 11.3836 282.331 10.834 283.229 10.834C284.126 10.834 284.782 11.3836 284.782 12.4551V14.7597C284.782 14.889 284.889 14.9952 285.019 14.9952H288.181C290.186 14.9952 290.158 17.9509 288.181 17.9509H285.019C284.889 17.9509 284.782 18.0572 284.782 18.1865V24.3381C284.782 25.4881 285.572 26.0654 286.335 26.0654C287.098 26.0654 287.888 25.4881 287.888 24.3381V23.71C287.888 22.6386 288.549 22.089 289.446 22.089C290.344 22.089 291.027 22.6386 291.027 23.71" fill="white"/>
<path d="M307.345 21.8582C307.345 25.7838 304.578 28.9797 300.333 28.9797C296.087 28.9797 293.32 25.7838 293.32 21.8582C293.32 17.9325 296.059 14.7643 300.333 14.7643C304.606 14.7643 307.345 17.9556 307.345 21.8582ZM304.099 21.8582C304.099 19.6044 302.728 17.8263 300.328 17.8263C297.928 17.8263 296.561 19.6044 296.561 21.8582C296.561 24.1119 297.933 25.9177 300.328 25.9177C302.723 25.9177 304.099 24.1396 304.099 21.8582Z" fill="white"/>
<path d="M263.595 44.7374C263.199 44.7374 262.776 44.5804 262.437 44.1878L258.563 39.8142C258.512 39.7357 258.405 39.7357 258.326 39.7865C257.902 40.1005 257.484 40.3638 257.061 40.6224C256.982 40.6501 256.931 40.7286 256.931 40.8302V43.1071C256.931 44.1786 256.247 44.7281 255.377 44.7281C254.508 44.7281 253.796 44.1786 253.796 43.1071V31.515C253.796 30.4389 254.48 29.8893 255.377 29.8893C256.275 29.8893 256.931 30.4389 256.931 31.515V36.6414C256.931 36.8492 257.168 36.9554 257.326 36.8261C259.037 35.3575 260.567 33.3162 261.2 31.5104C261.437 30.8315 261.99 30.5174 262.544 30.5174C263.464 30.5174 264.39 31.3303 263.994 32.4802C263.413 34.129 262.283 35.9117 260.883 37.4265C260.832 37.505 260.832 37.6112 260.883 37.6898L264.813 42.1419C265.734 43.1902 264.999 44.7328 263.599 44.7328" fill="#00B0C8"/>
<path d="M280.778 37.3296V43.1164C280.778 44.1879 280.094 44.7374 279.224 44.7374C278.355 44.7374 277.643 44.1879 277.643 43.1164V37.6205C277.643 34.9511 275.825 33.5887 273.9 33.5887C271.974 33.5887 270.105 34.9234 270.105 37.6482C270.105 39.902 271.477 41.4445 273.876 41.4445H275.09C276.09 41.4445 276.592 42.1789 276.592 42.9871C276.592 43.7953 276.09 44.5065 275.09 44.5065H273.876C269.607 44.5065 266.864 41.5508 266.864 37.6482C266.864 32.859 270.319 30.5267 274.062 30.5267C277.806 30.5267 280.787 32.9329 280.787 37.3342" fill="#00B0C8"/>
<path d="M292.478 32.2771C292.478 33.0899 291.976 33.8196 291.004 33.8196H290.027C288.391 33.8196 287.023 34.7617 287.023 36.9878V43.1117C287.023 44.1832 286.34 44.7328 285.47 44.7328C284.6 44.7328 283.889 44.1832 283.889 43.1117V36.6968C283.889 32.5865 286.814 30.753 290.032 30.753H291.009C291.985 30.753 292.483 31.4596 292.483 32.2724" fill="#00B0C8"/>
<path d="M304.634 40.313C305.453 40.313 306.215 40.9134 306.215 41.8833C306.215 43.5828 302.997 44.7374 300.128 44.7374C295.329 44.7374 292.906 41.1767 292.906 37.6159C292.906 32.7204 296.463 30.5221 299.863 30.5221C302.974 30.5221 305.95 32.3556 305.95 35.6023C305.95 37.251 305.132 37.9577 303.606 38.4564L297.491 40.3684C297.333 40.4192 297.305 40.604 297.412 40.7102C298.072 41.3106 298.97 41.6801 300.128 41.6801C301.286 41.6801 302.895 41.2598 303.504 40.7379C303.848 40.4516 304.244 40.3176 304.639 40.3176M296.301 37.8514L302.495 35.9163C302.574 34.3184 301.281 33.4548 299.858 33.4548C298.068 33.4548 296.036 34.8172 296.115 37.6944C296.115 37.8006 296.222 37.8791 296.301 37.8514Z" fill="#00B0C8"/>
<path d="M227.805 3.30147C229.223 6.21104 227.996 9.70714 225.07 11.1157C222.141 12.5243 218.62 11.3051 217.202 8.40014C215.784 5.49058 217.011 1.99447 219.936 0.585874C222.866 -0.822727 226.387 0.396521 227.805 3.30147Z" fill="white"/>
<path d="M248.206 21.9088C247.82 20.9574 247.323 20.0569 246.755 19.2071C246.039 17.7662 245.314 17.2397 243.812 16.1913C243.454 15.9419 243.081 15.7064 242.714 15.4616C242.602 15.3877 242.458 15.4708 242.468 15.6048L242.621 17.5768C242.086 17.78 241.449 18.0202 241.04 18.4266C240.561 18.9069 240.533 19.6504 239.854 20.0107C239.705 20.0892 239.543 20.14 239.38 20.1908C239.18 20.2555 239.054 20.4494 239.077 20.6572L239.115 21.0313C239.329 21.6779 239.77 22.1582 240.394 22.4399C241.077 22.7494 241.561 22.6755 242.077 23.3267C242.077 23.3267 244.021 27.1045 242.379 30.305C242.04 30.8731 241.645 31.3996 241.193 31.8799C239.073 34.226 235.632 35.3991 232.613 34.6601C230.037 34.0828 227.786 32.1293 227.084 29.5892C226.675 28.1575 226.903 26.7073 227.61 25.5111C228.67 23.7146 228.493 21.4562 227.089 19.9091L227.033 19.849C227.033 19.849 225.196 17.8262 221.755 14.0438C219.718 11.8038 216.044 12.2149 214.593 14.8658C214.007 15.9419 213.51 17.0642 213.119 18.2188C210.068 27.026 213.403 37.1032 221.332 42.0449C226.052 45.0514 232.125 45.8458 237.431 44.0493C246.648 41.015 251.866 30.9239 248.197 21.9088" fill="white"/>
<g opacity="0.76">
<mask id="mask6_1_215" style="mask-type:luminance" maskUnits="userSpaceOnUse" x="219" y="11" width="31" height="33">
<path d="M249.406 11.5961H219.843V43.9061H249.406V11.5961Z" fill="white"/>
</mask>
<g mask="url(#mask6_1_215)">
<path d="M238.654 29.9818C238.603 32.1108 236.58 34.6186 234.678 35.5654C232.46 36.7292 229.535 36.4752 227.414 35.0527C224.959 33.4825 223.517 30.4067 223.74 27.4463C223.773 26.9152 223.861 26.3887 223.987 25.8714C224.154 25.2064 223.861 24.5136 223.252 24.1904L223.201 24.1626C222.461 23.7701 221.541 24.0657 221.164 24.8138C220.569 26.0008 220.159 27.2847 219.969 28.6055C218.862 36.3736 224.931 43.2642 232.743 43.8553C237.254 44.234 241.849 42.4329 244.955 39.1677C250.196 33.7642 250.829 25.2295 246.709 18.9208C246.253 18.2096 245.737 17.5307 245.174 16.8933C245.262 15.8542 245.337 14.8105 245.3 13.7667C245.281 13.2818 245.244 11.8547 244.755 11.6284C244.351 11.4437 243.542 12.2196 243.277 12.4828C242.416 13.3418 241.7 14.3856 240.984 15.3647L240.993 14.1824C240.924 12.6167 240.105 12.2242 239.333 13.8175C239.017 14.4733 238.849 15.2954 238.682 16.002L236.72 16.0851L235.975 17.2951L231.116 17.115C230.693 17.0965 230.353 17.4568 230.39 17.877C230.521 19.2903 230.939 20.8328 231.902 21.835C232.595 22.5508 234.348 22.2183 235.273 22.5601C235.273 22.5601 238.98 26.0331 238.64 29.991" fill="#00B0C8"/>
</g>
</g>
</g>
<defs>
<clipPath id="clip0_1_215">
<rect width="180" height="40" fill="white" transform="translate(0 1.00751)"/>
</clipPath>
<clipPath id="clip1_1_215">
<rect width="95.3456" height="45" fill="white" transform="translate(212)"/>
</clipPath>
</defs>
</svg>
